<svg width="68" height="79" viewBox="0 0 68 79" fill="none" xmlns="http://www.w3.org/2000/svg">
<g clip-path="url(#clip0_296_4025)">
<path d="M11.9112 42.4137C11.4044 41.635 10.9405 40.8292 10.5215 40C10.9893 40.8322 11.4558 41.634 11.9112 42.4137Z" fill="white"/>
<path d="M45.3762 42.4771C45.1784 42.4771 44.985 42.4183 44.8207 42.3082C44.6563 42.1981 44.5283 42.0418 44.4529 41.8589C41.8695 35.5838 37.619 33.3026 36.3783 32.7506C33.5905 31.4922 30.9131 30.0026 28.374 28.2972C28.1662 28.1428 28.0263 27.9136 27.9841 27.6581C27.9418 27.4026 28.0004 27.1407 28.1475 26.9276C28.2946 26.7144 28.5188 26.5668 28.7726 26.5156C29.0265 26.4645 29.2903 26.514 29.5084 26.6536C31.945 28.2876 34.5117 29.7185 37.1829 30.9317C38.596 31.5582 43.4289 34.1417 46.2912 41.104C46.3411 41.2252 46.3666 41.3551 46.3662 41.4862C46.3659 41.6173 46.3398 41.7471 46.2893 41.8681C46.2388 41.989 46.1649 42.0989 46.0719 42.1913C45.979 42.2838 45.8687 42.357 45.7474 42.4068C45.6295 42.4544 45.5034 42.4784 45.3762 42.4771Z" fill="white"/>
<path d="M43.9185 68.5477C43.8145 68.5471 43.7112 68.5308 43.6121 68.4994C43.3603 68.4181 43.151 68.2402 43.0301 68.0047C42.9093 67.7693 42.8868 67.4956 42.9676 67.2435C43.2961 66.2251 43.6701 65.3032 44.0316 64.4131C45.1633 61.6212 46.3349 58.7342 46.3349 52.1638C46.3445 51.9054 46.4539 51.6608 46.6401 51.4814C46.8263 51.302 47.0748 51.2018 47.3334 51.2018C47.592 51.2018 47.8404 51.302 48.0266 51.4814C48.2128 51.6608 48.3222 51.9054 48.3318 52.1638C48.3318 59.1234 47.0898 62.194 45.8809 65.1638C45.5166 66.0595 45.1729 66.9068 44.8679 67.8549C44.8034 68.056 44.6767 68.2314 44.506 68.3559C44.3354 68.4804 44.1297 68.5476 43.9185 68.5477Z" fill="white"/>
<path d="M48.3595 20.184C47.9613 20.1865 47.5632 20.1672 47.1671 20.126C46.9043 20.0942 46.6649 19.9592 46.5016 19.7509C46.3383 19.5426 46.2645 19.2779 46.2963 19.0151C46.3282 18.7523 46.4631 18.5129 46.6714 18.3496C46.8798 18.1863 47.1445 18.1124 47.4073 18.1443C47.4445 18.1443 51.3321 18.5776 53.5181 16.5917C54.5545 15.6492 55.0624 14.2608 55.0237 12.464C54.9575 9.45551 54.4317 7.50965 53.9583 6.68162C53.8368 6.45246 53.8092 6.18503 53.8813 5.93587C53.9534 5.68672 54.1196 5.47537 54.3447 5.34651C54.5698 5.21765 54.8362 5.18137 55.0876 5.24536C55.3389 5.30934 55.5556 5.46857 55.6917 5.68937C56.4728 7.05424 56.9558 9.51072 57.0151 12.4267C57.0662 14.8294 56.3361 16.7325 54.8471 18.0849C52.835 19.8983 49.959 20.184 48.3595 20.184Z" fill="white"/>
<path d="M49.8553 33.489C49.2922 33.489 48.9155 33.4655 48.8685 33.4628C48.7378 33.4537 48.6101 33.419 48.4928 33.3606C48.3754 33.3021 48.2707 33.2212 48.1847 33.1223C48.0109 32.9227 47.9235 32.6621 47.9418 32.3981C47.9601 32.134 48.0826 31.888 48.2823 31.7142C48.4819 31.5404 48.7425 31.4531 49.0065 31.4714C49.8567 31.5266 52.3642 31.5321 53.7456 30.8945C54.4356 30.5785 56.6672 29.2688 56.6658 25.6807C56.6658 23.0324 55.9827 21.8511 55.4334 20.9016L55.3189 20.7029C55.1877 20.4727 55.1533 20.1997 55.2233 19.9442C55.2933 19.6886 55.462 19.4713 55.6922 19.3401C55.9224 19.2089 56.1953 19.1745 56.4509 19.2445C56.7065 19.3145 56.9237 19.4832 57.055 19.7134L57.164 19.9024C57.7615 20.9347 58.6655 22.4969 58.6655 25.6807C58.6655 28.8645 57.1019 31.5459 54.5847 32.7079C53.1246 33.3786 51.0642 33.489 49.8553 33.489Z" fill="white"/>
<path d="M55.3801 46.3302C55.1527 46.3296 54.9323 46.2514 54.7555 46.1085C54.5786 45.9656 54.4558 45.7666 54.4075 45.5444C54.3592 45.3222 54.3883 45.0902 54.4898 44.8867C54.5914 44.6833 54.7594 44.5206 54.9661 44.4257C55.6782 44.0959 56.6028 42.956 57.061 41.1495C57.475 39.5183 57.6654 36.7485 56.2205 32.8099C56.129 32.5612 56.1401 32.2863 56.2512 32.0458C56.3624 31.8052 56.5645 31.6187 56.8132 31.5272C57.062 31.4357 57.3368 31.4467 57.5774 31.5579C57.8179 31.669 58.0045 31.8712 58.096 32.1199C60.9196 39.8233 58.4548 45.0109 55.8024 46.235C55.6702 46.2971 55.5261 46.3296 55.3801 46.3302Z" fill="white"/>
<path d="M67.2837 12.9375C67.4438 7.91823 67.2644 6.1918 66.4102 4.54127C66.35 4.42482 66.2675 4.32138 66.1673 4.23682C66.0672 4.15227 65.9514 4.08828 65.8265 4.04849C65.7016 4.0087 65.5701 3.99389 65.4395 4.00492C65.3089 4.01595 65.1818 4.05259 65.0653 4.11276C64.9489 4.17293 64.8454 4.25544 64.7609 4.35559C64.6763 4.45574 64.6123 4.57156 64.5725 4.69644C64.5327 4.82132 64.5179 4.95282 64.529 5.08342C64.54 5.21402 64.5766 5.34117 64.6368 5.45761C65.2551 6.65135 65.4455 7.95135 65.2882 12.874C65.2275 14.766 64.6244 16.1474 63.4941 16.981C62.2397 17.907 60.6333 17.9153 59.6383 17.642C59.3821 17.5718 59.1085 17.6061 58.8776 17.7376C58.6467 17.8691 58.4776 18.0869 58.4073 18.3431C58.337 18.5993 58.3714 18.8729 58.5029 19.1038C58.6343 19.3346 58.8521 19.5038 59.1084 19.5741C59.6813 19.7239 60.2716 19.7973 60.8638 19.7921C61.8667 19.7987 62.8578 19.5764 63.7619 19.1421C63.756 19.2752 63.7771 19.408 63.824 19.5327L63.9081 19.759C64.3222 20.8561 64.8452 22.221 64.4698 25.0791C64.1055 27.8571 63.0346 28.7279 61.1867 29.3572C60.9639 29.4345 60.7756 29.5881 60.6552 29.7908C60.5347 29.9936 60.4899 30.2324 60.5285 30.465C60.5672 30.6976 60.6869 30.9091 60.8664 31.0619C61.046 31.2148 61.2738 31.2992 61.5096 31.3003C61.6201 31.3002 61.7297 31.2815 61.8339 31.2451C62.6854 30.9525 63.5217 30.5786 64.249 29.97C66.4709 38.9223 63.8874 43.7166 62.6302 44.4701C62.5179 44.5375 62.4199 44.6264 62.3419 44.7317C62.2639 44.837 62.2074 44.9566 62.1756 45.0837C62.1438 45.2108 62.1374 45.343 62.1566 45.4726C62.1759 45.6022 62.2206 45.7267 62.288 45.8391C62.3554 45.9514 62.4443 46.0494 62.5496 46.1274C62.6549 46.2054 62.7745 46.262 62.9016 46.2937C63.0287 46.3255 63.1609 46.3319 63.2905 46.3127C63.4201 46.2934 63.5446 46.2488 63.657 46.1813C63.7594 46.1201 63.8585 46.0533 63.9537 45.9812C64.9956 54.4078 64.5057 61.4543 63.7743 66.312L63.7053 66.3562C63.6349 66.4059 56.5111 71.2498 42.2746 70.6123C35.1287 70.2921 29.603 68.7271 25.852 67.2367C22.6779 65.9739 20.779 64.7636 20.2477 64.4048C20.4085 63.6875 20.4932 62.9553 20.5002 62.2202C20.5002 56.7704 19.3603 52.6358 17.7208 48.9621C18.6317 49.7791 19.5563 50.5588 20.474 51.3303C21.6843 52.3515 22.936 53.4003 24.1242 54.5196C26.4986 56.7656 28.0847 59.7181 28.6466 62.9378C28.6855 63.1709 28.8056 63.3826 28.9858 63.5354C29.1659 63.6883 29.3944 63.7724 29.6306 63.7728C29.6856 63.7729 29.7406 63.7683 29.7948 63.759C29.9242 63.7375 30.048 63.6908 30.1593 63.6215C30.2705 63.5522 30.3671 63.4616 30.4433 63.355C30.5196 63.2484 30.5741 63.1278 30.6037 63.0001C30.6333 62.8724 30.6375 62.7401 30.616 62.6108C29.996 58.9537 28.1953 55.6004 25.4891 53.0636C24.2622 51.914 22.9898 50.8417 21.763 49.8053C18.7683 47.2826 15.9116 44.8772 13.6414 41.405C13.197 40.646 12.7513 39.8801 12.3083 39.0948C12.2959 39.0713 12.2835 39.0479 12.2697 39.0258C10.4245 35.7482 8.64151 32.1587 7.28907 27.4942C3.23312 13.5198 2.88535 2.14689 2.88259 2.03373C2.87582 1.7691 2.7642 1.518 2.5723 1.33567C2.38039 1.15334 2.12391 1.05471 1.85929 1.06148C1.59466 1.06826 1.34356 1.17987 1.16123 1.37178C0.978903 1.56368 0.880275 1.82016 0.887046 2.08479C0.887046 2.20071 1.23482 13.8152 5.36253 28.0503C6.76327 32.8805 8.65255 36.677 10.5184 39.996C10.9862 40.824 11.4527 41.63 11.9081 42.4097L12.2213 42.9438C15.59 48.6944 18.5005 53.6598 18.5005 62.223C18.5005 67.7431 11.5327 76.3091 11.4623 76.3946C11.2943 76.5992 11.2145 76.8622 11.2404 77.1257C11.2662 77.3891 11.3957 77.6315 11.6003 77.7995C11.8049 77.9675 12.0679 78.0474 12.3314 78.0215C12.5948 77.9956 12.8372 77.8661 13.0052 77.6615C14.6973 75.5496 16.22 73.3074 17.5594 70.9559C19.9772 72.4491 27.7206 76.5616 40.3729 77.1205C41.3168 77.1629 42.2336 77.1836 43.1233 77.1826C52.6884 77.1826 59.1774 74.9221 62.2383 73.5462C62.1684 73.7946 62.1003 74.0283 62.034 74.2473C61.5717 75.7916 61.2295 76.6279 61.2226 76.6444C61.1317 76.8868 61.1385 77.1549 61.2414 77.3924C61.3443 77.6299 61.5353 77.8182 61.7743 77.9176C62.0132 78.0171 62.2814 78.0199 62.5224 77.9255C62.7634 77.8312 62.9584 77.647 63.0663 77.4117C63.1243 77.2737 64.5071 73.9078 65.5173 68.0191C66.4364 62.6687 67.1996 54.1414 65.6553 43.7676C66.1722 42.7001 66.5435 41.568 66.7593 40.4017C67.2285 37.9991 67.4493 33.9555 65.8706 28.3346C65.8384 28.2197 65.7856 28.1117 65.7146 28.0158C66.0897 27.166 66.334 26.2643 66.4391 25.3413C66.8794 21.9836 66.2363 20.2889 65.7657 19.0524L65.6829 18.8358C65.6328 18.7007 65.5539 18.5781 65.4517 18.4766C65.3494 18.375 65.2263 18.297 65.0908 18.2479C66.1245 17.3288 67.1954 15.7127 67.2837 12.9375ZM62.8883 71.0042C61.2667 71.8791 53.3922 75.6963 40.4626 75.1305C33.1994 74.809 27.584 73.244 23.7751 71.7522C21.9433 71.0527 20.1765 70.1938 18.495 69.1853C18.9401 68.289 19.3323 67.3674 19.6694 66.4252C22.0155 67.8991 29.6541 72.053 42.1807 72.6161C43.1127 72.6575 44.0139 72.6782 44.8842 72.6782C54.6066 72.6782 60.6982 70.2383 63.3368 68.8789C63.1905 69.6366 63.0387 70.3459 62.8883 71.0042Z" fill="white"/>
<path d="M60.2595 51.653C59.9949 51.653 59.7411 51.5479 59.554 51.3608C59.3668 51.1737 59.2617 50.9199 59.2617 50.6553V48.105C59.2617 47.8403 59.3668 47.5865 59.554 47.3994C59.7411 47.2123 59.9949 47.1072 60.2595 47.1072C60.5241 47.1072 60.7779 47.2123 60.965 47.3994C61.1521 47.5865 61.2573 47.8403 61.2573 48.105V50.6553C61.2573 50.9199 61.1521 51.1737 60.965 51.3608C60.7779 51.5479 60.5241 51.653 60.2595 51.653Z" fill="white"/>
<path d="M38.0839 20.2708C36.1353 20.2708 33.4746 18.7238 28.9963 15.0501C26.0472 12.6295 24.812 10.772 25.2205 9.36847C25.2562 9.24233 25.3164 9.12446 25.3977 9.02159C25.4789 8.91872 25.5797 8.83286 25.6941 8.76891C25.8085 8.70497 25.9345 8.66418 26.0647 8.6489C26.1948 8.63361 26.3268 8.64412 26.4529 8.67982C26.5791 8.71553 26.6969 8.77572 26.7998 8.85698C26.9027 8.93823 26.9885 9.03895 27.0525 9.15339C27.1164 9.26783 27.1572 9.39374 27.1725 9.52394C27.1878 9.65413 27.1773 9.78607 27.1416 9.9122C27.1416 9.98259 27.2368 11.0162 30.2632 13.5072C32.7956 15.5842 36.2885 18.2739 38.0715 18.2739C38.1692 18.2742 38.2668 18.2649 38.3627 18.2463C38.5987 18.198 38.9147 18.0669 39.2211 17.4721C39.5744 16.8 39.4598 15.9941 38.883 15.0749C38.7421 14.851 38.6959 14.5801 38.7547 14.3221C38.8134 14.0641 38.9722 13.84 39.1962 13.699C39.4202 13.5581 39.691 13.512 39.9491 13.5707C40.2071 13.6295 40.4312 13.7883 40.5722 14.0123C41.5285 15.5304 41.6762 17.0912 40.9862 18.3995C40.4604 19.4028 39.7096 20.0086 38.756 20.2032C38.5347 20.2477 38.3096 20.2703 38.0839 20.2708Z" fill="white"/>
<path d="M38.1267 28.013C36.2457 28.013 33.6333 26.7502 29.2627 23.7818C25.8126 21.4357 25.3986 20.1688 25.3986 19.4194C25.395 19.1484 25.4594 18.8809 25.586 18.6412C25.7126 18.4015 25.8972 18.1975 26.1231 18.0477C26.3227 17.9079 26.5665 17.846 26.8086 17.8736C27.0506 17.9012 27.2742 18.0165 27.4372 18.1976C27.6002 18.3787 27.6912 18.6132 27.6932 18.8569C27.6952 19.1005 27.6079 19.3364 27.4479 19.5202C27.6067 19.821 28.2015 20.6491 30.3819 22.1298C33.0606 23.9487 36.8143 26.3266 38.4814 25.9816C38.6469 25.9464 38.8028 25.8757 38.9384 25.7745C39.0739 25.6732 39.1859 25.5438 39.2666 25.395C39.4198 25.1549 39.5496 24.7975 39.199 24.1627C39.0709 23.931 39.0401 23.6579 39.1133 23.4035C39.1866 23.1491 39.3579 22.9342 39.5896 22.8061C39.8213 22.678 40.0943 22.6471 40.3488 22.7204C40.6032 22.7936 40.8181 22.9649 40.9462 23.1966C41.5699 24.3255 41.5727 25.4861 40.9531 26.4632C40.7292 26.8389 40.4295 27.1639 40.0731 27.4174C39.7167 27.6709 39.3114 27.8475 38.883 27.9357C38.6342 27.9871 38.3808 28.013 38.1267 28.013Z" fill="white"/>
<path d="M13.8601 20.2695C13.6644 20.2696 13.4729 20.2123 13.3095 20.1044C13.1461 19.9966 13.0181 19.8431 12.9413 19.6631C12.8645 19.483 12.8424 19.2844 12.8777 19.0918C12.9129 18.8993 13.0041 18.7214 13.1397 18.5803C17.7877 13.7336 16.5815 1.97145 16.5691 1.85139C16.5491 1.59277 16.6307 1.33653 16.7964 1.137C16.9621 0.937461 17.199 0.810308 17.4569 0.782491C17.7148 0.754673 17.9734 0.82838 18.1779 0.987985C18.3823 1.14759 18.5166 1.38055 18.5523 1.63748C18.6088 2.15775 19.8716 14.4429 14.5832 19.9617C14.4899 20.0593 14.3776 20.137 14.2533 20.1899C14.129 20.2428 13.9952 20.2699 13.8601 20.2695Z" fill="white"/>
</g>
<defs>
<clipPath id="clip0_296_4025">
<rect width="66.4505" height="77.2825" fill="white" transform="translate(0.886719 0.747437)"/>
</clipPath>
</defs>
</svg>
