<svg width="32" height="33" viewBox="0 0 32 33" fill="none" xmlns="http://www.w3.org/2000/svg">
<circle cx="16" cy="16.5" r="16" fill="black"/>
<path d="M16.2581 8C15.765 8 15.3654 8.39964 15.3654 8.8927V15.3654H8.8927C8.39964 15.3654 8 15.765 8 16.2581C8 16.7511 8.39964 17.1508 8.8927 17.1508H15.3654V23.6234C15.3654 24.1165 15.765 24.5161 16.2581 24.5161C16.7511 24.5161 17.1508 24.1165 17.1508 23.6234V17.1508H23.6234C24.1165 17.1508 24.5161 16.7511 24.5161 16.2581C24.5161 15.765 24.1165 15.3654 23.6234 15.3654H17.1508V8.8927C17.1508 8.39964 16.7511 8 16.2581 8Z" fill="white"/>
</svg>
