<svg width="171" height="169" viewBox="0 0 171 169" fill="none" xmlns="http://www.w3.org/2000/svg">
<ellipse cx="85.7471" cy="84.2261" rx="85.249" ry="84.2261" fill="#CFDC35" fill-opacity="0.2"/>
<path d="M52.7333 64.9007C64.1026 54.441 79.9058 63.65 85.4767 63.65C91.0478 63.65 106.851 54.4411 118.22 64.9007C129.476 75.1326 125.042 99.4631 122.2 107.535C119.244 115.608 109.693 129.819 102.076 132.206C98.0964 133.457 93.5491 130.728 85.4765 130.728C77.404 130.728 72.8567 133.457 68.877 132.206C61.2596 129.819 51.7097 115.607 48.7533 107.535C45.911 99.577 41.5905 75.2466 52.7329 64.9007H52.7333Z" fill="#CFDC35"/>
<path d="M86.1583 54.0999C86.1583 54.0999 88.2043 35.9087 77.177 35C77.177 35 75.3577 35.5686 74.7891 38.8653C74.7891 38.8653 81.611 41.7076 83.4295 54.0999H86.1583Z" fill="#CFDC35"/>
</svg>
