<svg width="88" height="68" viewBox="0 0 88 68" fill="none" xmlns="http://www.w3.org/2000/svg">
<g clip-path="url(#clip0_296_4038)">
<path d="M57.1798 39.574C53.3036 39.574 50.1499 35.8877 50.1499 31.355C50.1394 31.0904 50.0269 30.8401 49.836 30.6566C49.6451 30.4731 49.3905 30.3706 49.1257 30.3706C48.8609 30.3706 48.6064 30.4731 48.4155 30.6566C48.2245 30.8401 48.1121 31.0904 48.1016 31.355C48.1016 37.0204 52.1709 41.6223 57.1815 41.6223C57.4461 41.6118 57.6963 41.4994 57.8798 41.3084C58.0633 41.1175 58.1658 40.863 58.1658 40.5982C58.1658 40.3334 58.0633 40.0788 57.8798 39.8879C57.6963 39.697 57.4461 39.5845 57.1815 39.574H57.1798Z" fill="white"/>
<path d="M52.9063 48.4608C51.1734 48.4608 49.7671 47.3827 49.7671 46.0472C49.7566 45.7826 49.6441 45.5324 49.4532 45.3489C49.2623 45.1654 49.0077 45.0629 48.7429 45.0629C48.4781 45.0629 48.2236 45.1654 48.0326 45.3489C47.8417 45.5324 47.7292 45.7826 47.7188 46.0472C47.7188 48.5043 50.0535 50.5123 52.9063 50.5123C53.0442 50.5178 53.1818 50.4954 53.3109 50.4464C53.4399 50.3974 53.5577 50.3228 53.6572 50.2272C53.7567 50.1315 53.8359 50.0168 53.8899 49.8898C53.944 49.7628 53.9719 49.6262 53.9719 49.4882C53.9719 49.3502 53.944 49.2136 53.8899 49.0866C53.8359 48.9596 53.7567 48.8449 53.6572 48.7492C53.5577 48.6536 53.4399 48.579 53.3109 48.53C53.1818 48.481 53.0442 48.4586 52.9063 48.464V48.4608Z" fill="white"/>
<path d="M39.8283 31.3548C39.8283 31.0834 39.7204 30.8231 39.5285 30.6312C39.3366 30.4392 39.0763 30.3314 38.8049 30.3314C38.5335 30.3314 38.2732 30.4392 38.0813 30.6312C37.8894 30.8231 37.7815 31.0834 37.7815 31.3548C37.7815 35.8875 34.6278 39.5738 30.75 39.5738C30.4854 39.5843 30.2351 39.6968 30.0516 39.8877C29.8681 40.0786 29.7656 40.3332 29.7656 40.598C29.7656 40.8628 29.8681 41.1173 30.0516 41.3082C30.2351 41.4992 30.4854 41.6117 30.75 41.6221C35.7477 41.6221 39.8299 37.0203 39.8299 31.3548H39.8283Z" fill="white"/>
<path d="M39.1852 45.0332C38.9145 45.0353 38.6554 45.1438 38.4639 45.3352C38.2725 45.5267 38.164 45.7858 38.1619 46.0565C38.1619 47.3808 36.7556 48.4701 35.0226 48.4701C34.8847 48.4647 34.7471 48.4871 34.6181 48.5361C34.489 48.5851 34.3712 48.6597 34.2717 48.7553C34.1722 48.851 34.0931 48.9657 34.039 49.0927C33.9849 49.2197 33.957 49.3563 33.957 49.4943C33.957 49.6323 33.9849 49.7689 34.039 49.8959C34.0931 50.0229 34.1722 50.1376 34.2717 50.2333C34.3712 50.3289 34.489 50.4035 34.6181 50.4525C34.7471 50.5015 34.8847 50.5239 35.0226 50.5185C37.8883 50.5185 40.2102 48.5248 40.2102 46.0533C40.2115 45.9184 40.1858 45.7847 40.1348 45.6598C40.0837 45.535 40.0082 45.4216 39.9128 45.3263C39.8173 45.2309 39.7038 45.1556 39.5789 45.1048C39.4539 45.0539 39.3201 45.0285 39.1852 45.03V45.0332Z" fill="white"/>
<path d="M87.2437 31.613C85.7151 21.9587 76.3488 13.9875 75.9546 13.6463C75.9128 13.619 75.8725 13.5771 75.8323 13.5514L71.4766 10.9029C71.353 10.8276 71.215 10.779 71.0714 10.7602C70.9279 10.7413 70.782 10.7527 70.6431 10.7935L66.6977 11.981C66.5241 12.0334 66.3683 12.1324 66.2472 12.2674C66.1249 12.4041 63.2721 15.5434 65.1209 18.8758C65.7484 20.0021 66.569 20.7181 67.5779 20.9917C68.4091 21.2056 69.2878 21.1382 70.0767 20.8002C71.24 20.7909 72.3917 20.569 73.4751 20.1453C74.1863 21.3601 74.3085 22.8807 74.2683 24.0762C73.0543 23.5926 71.7439 23.4001 70.4421 23.5141C69.1402 23.6281 67.8832 24.0455 66.7717 24.7327C66.1369 23.8752 65.334 23.156 64.412 22.619C63.4901 22.082 62.4683 21.7385 61.4092 21.6095C60.3501 21.4804 59.2758 21.5685 58.2519 21.8684C57.2279 22.1683 56.2758 22.6737 55.4537 23.3538C52.7649 22.4527 50.8807 19.7076 50.8807 16.6231C50.8807 16.0905 51.0416 15.64 51.3313 15.3664C51.6986 15.0152 51.9914 14.5935 52.1921 14.1265C52.3929 13.6596 52.4974 13.157 52.4994 12.6487V10.1772C52.4994 9.9524 52.4534 9.72997 52.3643 9.52357C52.2752 9.31716 52.1449 9.13112 51.9813 8.97687C51.7812 8.78056 51.5305 8.64356 51.2573 8.58104V7.3662C51.255 6.35161 51.0409 5.34867 50.6286 4.42163C50.2163 3.49458 49.615 2.66386 48.8631 1.98267C48.1111 1.30149 47.2252 0.784861 46.2621 0.465879C45.2989 0.146898 44.2798 0.0325952 43.2699 0.130292C39.7203 0.471412 36.7307 3.91157 36.7307 7.63974V8.58104C36.3754 8.67125 36.0604 8.87735 35.8354 9.16674C35.6104 9.45612 35.4884 9.81227 35.4885 10.1788V12.5409C35.4885 13.6463 35.8715 14.6166 36.5682 15.2763C36.7473 15.4543 36.8871 15.6678 36.9789 15.9031C37.0706 16.1383 37.1121 16.3901 37.1008 16.6424C37.1008 19.6867 35.2166 22.4446 32.5263 23.3457C32.4716 23.3039 32.4168 23.2765 32.3654 23.2363C32.3139 23.1961 32.2559 23.1397 32.2044 23.0995V23.1269C31.3793 22.5055 30.4391 22.054 29.4382 21.7985C28.4374 21.5429 27.3958 21.4884 26.3738 21.638C25.3517 21.7877 24.3695 22.1385 23.4839 22.6703C22.5984 23.202 21.827 23.9041 21.2146 24.7359C20.1036 24.0481 18.8468 23.6306 17.545 23.5168C16.2433 23.4031 14.9331 23.5963 13.7196 24.081C13.6649 22.8244 13.8017 21.336 14.5113 20.1356C15.5988 20.5469 16.7488 20.7685 17.9112 20.7905C18.6969 21.1417 19.5801 21.2094 20.4101 20.982C21.419 20.6956 22.2396 19.9844 22.8671 18.8661C24.724 15.5209 21.8566 12.38 21.7408 12.2577C21.6174 12.1254 21.4624 12.0269 21.2902 11.9713L17.3577 10.7838C17.2187 10.7439 17.073 10.733 16.9296 10.7518C16.7862 10.7707 16.6482 10.8188 16.5242 10.8932L12.1573 13.5514C12.1126 13.5784 12.071 13.6102 12.0334 13.6463C11.6375 13.9875 2.25836 21.9812 0.744242 31.5857C0.702407 31.7771 0.361288 33.5519 1.46671 34.836C2.14895 35.6405 3.23667 36.0508 4.53839 35.9961C6.12331 36.556 16.1976 39.9544 22.9701 37.552C23.6266 39.0259 25.0619 41.8385 27.2035 43.763C27.8492 44.398 28.3799 45.14 28.7723 45.9561C30.2205 48.7414 30.5423 52.0319 29.7008 55.2259C29.2647 56.8349 29.0732 57.9162 29.033 58.6934H28.9477C28.6789 58.6946 28.4213 58.8011 28.23 58.9899C28.0387 59.1788 27.929 59.4351 27.9244 59.7039L27.8294 66.4345C27.8276 66.5689 27.8523 66.7023 27.9021 66.8272C27.9519 66.952 28.0257 67.0659 28.1195 67.1622C28.2133 67.2585 28.3251 67.3353 28.4485 67.3884C28.572 67.4415 28.7047 67.4698 28.8391 67.4716C28.9735 67.4734 29.1069 67.4487 29.2318 67.3989C29.3566 67.3491 29.4704 67.2753 29.5667 67.1815C29.663 67.0877 29.7399 66.9759 29.793 66.8525C29.8461 66.729 29.8744 66.5963 29.8761 66.4619L29.9582 60.7417H58.0684V66.449C58.0789 66.7136 58.1914 66.9639 58.3823 67.1474C58.5732 67.3309 58.8277 67.4334 59.0925 67.4334C59.3573 67.4334 59.6119 67.3309 59.8028 67.1474C59.9937 66.9639 60.1062 66.7136 60.1167 66.449V59.7087C60.1146 59.4379 60.0061 59.1789 59.8146 58.9874C59.6232 58.7959 59.3641 58.6874 59.0933 58.6853H58.9421C58.9019 57.921 58.7104 56.843 58.2872 55.2452C57.4264 52.0367 57.7546 48.7333 59.2156 45.9481C59.7064 45.0052 60.239 44.2682 60.7845 43.7775C62.9325 41.8385 64.3807 39.0372 65.0243 37.5649C71.8097 39.9672 81.8711 36.5689 83.4415 36.009C84.8205 36.0492 85.831 35.6534 86.5132 34.8488C87.5655 33.5922 87.292 31.9139 87.2373 31.613H87.2437ZM84.9508 33.5117C84.6644 33.8335 84.1189 33.9944 83.3257 33.9478C83.1858 33.9366 83.0454 33.9604 82.917 34.0169C82.8076 34.0572 71.2707 38.2906 64.8811 35.3138C64.7531 35.2547 64.6141 35.2228 64.4731 35.2203C64.3321 35.2179 64.1921 35.2448 64.0621 35.2994C63.93 35.3546 63.8108 35.4366 63.7119 35.5402C63.6131 35.6437 63.5367 35.7666 63.4877 35.9011C63.4748 35.9414 61.9864 39.956 59.3926 42.2762C58.6685 42.9327 57.9863 43.8611 57.3861 45.0213C55.6789 48.2699 55.2944 52.093 56.2936 55.8019C56.7039 57.345 56.8535 58.2155 56.8938 58.7095H31.0363C31.0781 58.2171 31.2133 57.3434 31.6381 55.7729C32.6212 52.0866 32.2382 48.2651 30.5455 45.0293C30.0388 43.9986 29.3547 43.0651 28.5245 42.2714C25.9501 39.9495 24.4424 35.9365 24.4295 35.8947C24.381 35.7613 24.3054 35.6394 24.2076 35.5366C24.1097 35.4337 23.9917 35.3522 23.8609 35.2971C23.7301 35.242 23.5893 35.2144 23.4474 35.2162C23.3055 35.218 23.1654 35.249 23.0361 35.3074C16.661 38.289 5.1096 34.07 5.00662 34.0153C4.87592 33.9669 4.73729 33.9434 4.59792 33.9461C3.81914 33.988 3.27367 33.8367 2.98887 33.5101C2.60592 33.0596 2.64614 32.2679 2.71533 31.9541C4.06694 23.4262 12.4775 15.9248 13.2546 15.257L17.1389 12.882L20.3473 13.8475C20.7979 14.4348 21.9709 16.1822 21.0296 17.8701C20.114 19.5226 18.9378 19.0447 18.616 18.8677C18.4536 18.7761 18.2699 18.7289 18.0834 18.7309C16.8869 18.7605 15.7012 18.4982 14.6288 17.9666C14.4226 17.8465 14.1807 17.8027 13.9455 17.8427C13.7102 17.8827 13.4965 18.004 13.3415 18.1855C11.3222 20.5331 11.4992 23.9958 11.7872 25.843C11.8123 26.0132 11.8807 26.1742 11.9858 26.3106C12.0909 26.4469 12.2291 26.554 12.3874 26.6217C12.5462 26.6894 12.7194 26.7169 12.8914 26.7018C13.0634 26.6866 13.2291 26.6293 13.3737 26.5349C15.6264 25.061 18.6981 25.238 20.7319 26.9307C21.4397 27.5072 22.0103 28.2339 22.4024 29.0583C22.7946 29.8826 22.9984 30.7838 22.9991 31.6967C23.0095 31.9613 23.122 32.2116 23.313 32.3951C23.5039 32.5786 23.7584 32.6811 24.0232 32.6811C24.288 32.6811 24.5426 32.5786 24.7335 32.3951C24.9244 32.2116 25.0369 31.9613 25.0474 31.6967C25.0463 29.5844 24.2295 27.5541 22.7674 26.0296C23.2498 25.3483 23.8738 24.7794 24.5965 24.3617C25.3193 23.944 26.1239 23.6875 26.955 23.6097C27.7862 23.5319 28.6244 23.6347 29.4121 23.911C30.1998 24.1873 30.9185 24.6307 31.519 25.2106C31.5463 25.238 31.5737 25.238 31.6011 25.2653C31.6011 25.2798 31.6011 25.2798 31.5866 25.2927C32.1237 25.8296 32.5495 26.4673 32.8394 27.1692C33.1293 27.8711 33.2777 28.6234 33.2761 29.3829C33.2866 29.6475 33.3991 29.8977 33.59 30.0812C33.7809 30.2648 34.0354 30.3672 34.3002 30.3672C34.565 30.3672 34.8196 30.2648 35.0105 30.0812C35.2014 29.8977 35.3139 29.6475 35.3244 29.3829C35.3232 27.7961 34.837 26.2477 33.931 24.9451C37.0574 23.5259 39.1057 20.303 39.1057 16.5217C39.1058 16.0139 39.003 15.5113 38.8036 15.0442C38.6042 14.5771 38.3124 14.1553 37.9456 13.804C37.6575 13.5321 37.5079 13.0816 37.5079 12.549V10.5473C37.7861 10.4806 38.0409 10.3393 38.2448 10.1386C38.4058 9.98505 38.5336 9.80022 38.6205 9.59546C38.7074 9.3907 38.7515 9.17033 38.7501 8.9479V7.63974C38.7501 4.96389 40.948 2.41032 43.4469 2.16896C44.1725 2.09622 44.9053 2.17612 45.5981 2.40355C46.291 2.63097 46.9286 3.00087 47.4699 3.48946C48.0113 3.97806 48.4443 4.57454 48.7414 5.24054C49.0384 5.90654 49.1927 6.62733 49.1944 7.35655V8.93986C49.1937 9.16194 49.2382 9.38186 49.325 9.58626C49.4119 9.79067 49.5393 9.97529 49.6997 10.1289C49.9083 10.3242 50.162 10.4646 50.4382 10.5376V12.6487C50.4371 12.8819 50.3887 13.1125 50.2961 13.3266C50.2035 13.5406 50.0684 13.7337 49.8992 13.8941C49.2025 14.5619 48.8195 15.5321 48.8195 16.6649C48.8195 20.3368 50.8679 23.5452 53.9943 24.966C53.0884 26.2681 52.6022 27.816 52.6008 29.4022C52.6113 29.6668 52.7238 29.9171 52.9147 30.1006C53.1056 30.2841 53.3602 30.3865 53.625 30.3865C53.8898 30.3865 54.1443 30.2841 54.3352 30.1006C54.5262 29.9171 54.6386 29.6668 54.6491 29.4022C54.65 27.9019 55.2379 26.4615 56.2872 25.3892C56.2722 25.3715 56.2535 25.3572 56.2324 25.3474C56.3009 25.3196 56.3653 25.2828 56.4239 25.238C57.0245 24.6563 57.7438 24.2116 58.5325 23.9343C59.3212 23.6569 60.1606 23.5536 60.993 23.6315C61.8254 23.7093 62.6311 23.9664 63.3548 24.385C64.0784 24.8037 64.7029 25.3741 65.1852 26.057C63.7232 27.5809 62.9063 29.6106 62.9052 31.7224C62.8997 31.8603 62.9222 31.9979 62.9712 32.127C63.0202 32.256 63.0947 32.3738 63.1904 32.4733C63.286 32.5728 63.4008 32.652 63.5277 32.7061C63.6547 32.7601 63.7913 32.788 63.9294 32.788C64.0674 32.788 64.204 32.7601 64.3309 32.7061C64.4579 32.652 64.5727 32.5728 64.6683 32.4733C64.764 32.3738 64.8385 32.256 64.8875 32.127C64.9365 31.9979 64.959 31.8603 64.9535 31.7224C64.9572 30.8303 65.1545 29.9497 65.5318 29.1413C65.909 28.3329 66.4573 27.616 67.1386 27.0401C67.1241 27.0401 67.1241 27.0272 67.1113 27.0272C67.1241 27.0127 67.1386 27.0127 67.1515 26.9999C69.1853 25.2653 72.3262 25.069 74.566 26.5493C74.7063 26.6448 74.869 26.7024 75.0381 26.7165C75.2073 26.7306 75.3772 26.7007 75.5314 26.6298C75.6894 26.5621 75.8274 26.4552 75.9324 26.3191C76.0375 26.1831 76.106 26.0225 76.1316 25.8526C76.4325 24.0102 76.6368 20.5556 74.5901 18.1935C74.4346 18.0128 74.221 17.8921 73.9859 17.8521C73.7509 17.8122 73.5094 17.8555 73.3029 17.9747C72.2287 18.4977 71.0461 18.7596 69.8515 18.739C69.6676 18.7204 69.4832 18.7684 69.3317 18.8741C68.9906 19.0528 67.816 19.5306 66.9021 17.8781C65.9624 16.1886 67.1161 14.4187 67.573 13.8507L70.7912 12.8853L74.6786 15.257C75.4638 15.9248 83.8744 23.4294 85.226 31.9574C85.2251 31.9646 85.2259 31.9719 85.2281 31.9789C85.2303 31.9858 85.234 31.9922 85.2388 31.9976C85.2775 32.2711 85.3322 33.0644 84.9492 33.5149L84.9508 33.5117Z" fill="white"/>
<path d="M43.9656 25.921C43.6948 25.9231 43.4357 26.0316 43.2443 26.2231C43.0528 26.4145 42.9443 26.6736 42.9422 26.9444V47.0833C42.9367 47.2212 42.9592 47.3588 43.0082 47.4878C43.0572 47.6169 43.1318 47.7347 43.2274 47.8342C43.323 47.9337 43.4378 48.0128 43.5648 48.0669C43.6918 48.121 43.8284 48.1489 43.9664 48.1489C44.1044 48.1489 44.241 48.121 44.368 48.0669C44.495 48.0128 44.6097 47.9337 44.7053 47.8342C44.801 47.7347 44.8756 47.6169 44.9246 47.4878C44.9736 47.3588 44.996 47.2212 44.9905 47.0833V26.9444C44.9907 26.8098 44.9644 26.6765 44.9129 26.5521C44.8615 26.4278 44.7859 26.3148 44.6907 26.2197C44.5955 26.1246 44.4824 26.0493 44.3579 25.998C44.2335 25.9468 44.1002 25.9206 43.9656 25.921V25.921Z" fill="white"/>
</g>
<defs>
<clipPath id="clip0_296_4038">
<rect width="86.6539" height="67.3662" fill="white" transform="translate(0.662109 0.098877)"/>
</clipPath>
</defs>
</svg>
