<svg width="67" height="80" viewBox="0 0 67 80" fill="none" xmlns="http://www.w3.org/2000/svg">
<path d="M65.4771 71.6751C46.694 78.6061 31.9603 77.7839 22.9102 75.8717C14.0309 73.9967 8.72778 70.7385 7.76681 70.1124C6.69057 68.5287 -1.80416 55.2366 5.77372 41.0206C10.3962 32.3493 10.4703 27.6921 10.531 23.9495C10.5778 21.0094 10.6149 18.6872 12.7849 15.0663C15.7481 10.1222 25.2924 3.37769 32.206 2.55554C34.646 2.26486 36.5019 2.74208 37.7348 3.98275L42.7223 8.87953C43.0444 9.1964 43.2227 9.6174 43.2227 10.0659C43.2227 10.5137 43.045 10.9347 42.7223 11.2516L42.5687 11.4024C42.475 11.288 42.3768 11.1769 42.2688 11.0714L37.2818 6.17402C36.2381 5.14994 34.8501 4.58519 33.3751 4.58519C32.7309 4.58519 32.2091 5.09755 32.2091 5.73002C32.2091 6.36249 32.7309 6.87485 33.3751 6.87485C34.2275 6.87485 35.0298 7.20067 35.633 7.79226L40.6205 12.6897C40.832 12.8973 40.9738 13.1522 41.0513 13.4276C41.0565 13.524 41.0747 13.6192 41.104 13.7119C41.1098 13.7662 41.1202 13.8192 41.1202 13.8748C41.1202 14.3226 40.9426 14.7436 40.6198 15.0611L40.2496 15.424C40.1832 15.3486 40.1175 15.2739 40.0453 15.203L36.0734 11.3033C35.0291 10.2792 33.6418 9.7145 32.1674 9.7145C31.5232 9.7145 31.0014 10.2269 31.0014 10.8593C31.0014 11.4918 31.5232 12.0042 32.1674 12.0042C33.0198 12.0042 33.8214 12.33 34.4247 12.9222L38.3965 16.8225C38.7192 17.1387 38.8969 17.5597 38.8969 18.0076C38.8969 18.4554 38.7192 18.8764 38.3959 19.1939L35.2842 22.249C34.6394 22.8821 33.513 22.8821 32.8682 22.249L31.3007 20.7093C30.866 20.2826 30.866 19.5881 31.3 19.1614C31.7347 18.7353 32.442 18.7353 32.8766 19.1614C33.3321 19.6086 34.07 19.6086 34.5261 19.1614C34.9816 18.7142 34.9816 17.9891 34.5255 17.5419L32.4713 15.5263C32.2526 15.3117 31.9566 15.1909 31.6468 15.1909H31.6449C31.3352 15.1916 31.0378 15.313 30.8198 15.5282C26.3874 19.9064 22.3518 18.1622 22.1903 18.0901C21.6776 17.8498 21.0627 18.007 20.7354 18.4619C17.5626 22.8675 19.3696 27.5752 21.4616 33.0259C23.2718 37.7426 25.2765 42.9704 24.9433 49.4281C24.916 49.5437 24.9082 49.6613 24.918 49.7776C24.8282 51.1805 24.6336 52.639 24.2953 54.1659C24.1586 54.7843 24.5575 55.3937 25.1874 55.5279C25.2706 55.5452 25.3546 55.5547 25.4366 55.5547C25.9727 55.5547 26.4562 55.1887 26.5746 54.6527C26.8199 53.543 26.9956 52.4652 27.1147 51.4149C27.6932 51.5849 28.2762 51.6634 28.8637 51.6634C31.8771 51.6634 35.0161 49.6255 38.2856 47.502C45.6201 42.7393 53.9335 37.3409 64.9978 50.1922L66.7786 48.7132C54.3765 34.3076 44.3325 40.8297 36.9998 45.5917C32.6702 48.4039 29.7804 50.1276 27.2896 49.0306C27.5108 42.2997 25.4091 36.8151 23.6457 32.2196C21.7744 27.3439 20.3865 23.7279 22.1876 20.4978C23.4746 20.832 25.8704 21.1233 28.6475 19.8551C28.6261 20.7482 28.9612 21.6484 29.6535 22.3281L31.2217 23.8678C32.797 25.4145 35.3601 25.4145 36.9354 23.8678L40.0464 20.8127C40.8109 20.0633 41.2313 19.0673 41.2313 18.0076C41.2313 17.9092 41.2241 17.8114 41.217 17.7143L42.2711 16.68C43.0343 15.9306 43.4547 14.9346 43.4547 13.8748C43.4547 13.8416 43.4508 13.809 43.4495 13.7758L44.3728 12.8693C45.1361 12.1199 45.5564 11.1239 45.5564 10.0648C45.5564 9.00553 45.1361 8.00897 44.3728 7.2596L39.3937 2.37493C37.6368 0.60665 35.1252 -0.0974219 31.9257 0.283317C24.1793 1.20391 14.0205 8.48882 10.7739 13.9057C8.29159 18.0473 8.24662 20.8973 8.19848 23.914C8.13991 27.5971 8.07289 31.77 3.70742 39.9594C-5.00718 56.3072 5.87224 71.4554 5.98284 71.6059C6.05637 71.7068 6.14682 71.7943 6.24898 71.8665C6.48127 72.0301 12.0505 75.8965 22.2833 78.0807C26.0384 78.8824 30.7332 79.5047 36.2582 79.5047C44.5355 79.5047 54.6732 78.1062 66.2985 73.817L65.4771 71.6751Z" fill="white"/>
</svg>
