<svg width="16" height="16" viewBox="0 0 16 16" fill="none" xmlns="http://www.w3.org/2000/svg">
<path d="M15.6906 14.1953L9.49534 8L15.6906 1.80473C16.1031 1.3922 16.1031 0.721933 15.6906 0.309392C15.2781 -0.103131 14.6078 -0.103131 14.1953 0.309392L8 6.50466L1.80473 0.309392C1.39221 -0.103131 0.721933 -0.103131 0.309392 0.309392C-0.103131 0.721915 -0.103131 1.39219 0.309392 1.80473L6.50466 8L0.309392 14.1953C-0.103131 14.6078 -0.103131 15.2781 0.309392 15.6906C0.721915 16.1031 1.39219 16.1031 1.80473 15.6906L8 9.49534L14.1953 15.6906C14.6078 16.1031 15.2781 16.1031 15.6906 15.6906C16.1031 15.2781 16.1031 14.6078 15.6906 14.1953Z" fill="white"/>
</svg>
