<svg width="60" height="60" viewBox="0 0 60 60" fill="none" xmlns="http://www.w3.org/2000/svg">
<circle opacity="0.5" cx="30" cy="30" r="30" fill="#F3F3F3"/>
<path d="M30 17.7038C34.005 17.7038 34.48 17.7188 36.0625 17.7912C40.1275 17.9763 42.0262 19.905 42.2112 23.94C42.2837 25.5212 42.2975 25.9963 42.2975 30.0013C42.2975 34.0075 42.2825 34.4813 42.2112 36.0625C42.025 40.0938 40.1313 42.0262 36.0625 42.2112C34.48 42.2837 34.0075 42.2988 30 42.2988C25.995 42.2988 25.52 42.2837 23.9388 42.2112C19.8637 42.025 17.975 40.0875 17.79 36.0613C17.7175 34.48 17.7025 34.0063 17.7025 30C17.7025 25.995 17.7188 25.5212 17.79 23.9388C17.9763 19.905 19.87 17.975 23.9388 17.79C25.5212 17.7188 25.995 17.7038 30 17.7038ZM30 15C25.9262 15 25.4163 15.0175 23.8162 15.09C18.3688 15.34 15.3413 18.3625 15.0913 23.815C15.0175 25.4163 15 25.9262 15 30C15 34.0737 15.0175 34.585 15.09 36.185C15.34 41.6325 18.3625 44.66 23.815 44.91C25.4163 44.9825 25.9262 45 30 45C34.0737 45 34.585 44.9825 36.185 44.91C41.6275 44.66 44.6625 41.6375 44.9088 36.185C44.9825 34.585 45 34.0737 45 30C45 25.9262 44.9825 25.4163 44.91 23.8162C44.665 18.3737 41.6388 15.3413 36.1862 15.0913C34.585 15.0175 34.0737 15 30 15V15ZM30 22.2975C25.7463 22.2975 22.2975 25.7463 22.2975 30C22.2975 34.2537 25.7463 37.7038 30 37.7038C34.2537 37.7038 37.7025 34.255 37.7025 30C37.7025 25.7463 34.2537 22.2975 30 22.2975ZM30 35C27.2387 35 25 32.7625 25 30C25 27.2387 27.2387 25 30 25C32.7612 25 35 27.2387 35 30C35 32.7625 32.7612 35 30 35ZM38.0075 20.1938C37.0125 20.1938 36.2062 21 36.2062 21.9937C36.2062 22.9875 37.0125 23.7937 38.0075 23.7937C39.0012 23.7937 39.8062 22.9875 39.8062 21.9937C39.8062 21 39.0012 20.1938 38.0075 20.1938Z" fill="black"/>
</svg>
