<svg width="59" height="33" viewBox="0 0 59 33" fill="none" xmlns="http://www.w3.org/2000/svg">
<path d="M17.2796 32.0911C15.9007 32.0823 14.5821 31.5271 13.6125 30.5468C12.6429 29.567 12.1012 28.2422 12.1073 26.8633C12.1134 25.4844 12.6658 24.1648 13.6437 23.1929C14.6217 22.2209 15.9456 21.677 17.3245 21.6797C18.7029 21.6825 20.0244 22.2326 20.9982 23.2082C21.972 24.1844 22.5187 25.5069 22.5192 26.8856C22.5136 28.2702 21.9589 29.5963 20.9767 30.5725C19.9941 31.5486 18.6646 32.0949 17.2797 32.0912L17.2796 32.0911ZM17.2796 23.6976C16.4354 23.7032 15.6276 24.0431 15.0337 24.6435C14.4403 25.2434 14.1084 26.0545 14.1122 26.8986C14.1154 27.7428 14.4539 28.5512 15.0529 29.1464C15.6519 29.7417 16.4621 30.075 17.3062 30.0731C18.1504 30.0712 18.9596 29.7347 19.5559 29.1371C20.1526 28.5395 20.4873 27.7298 20.4873 26.8856C20.484 26.0377 20.1442 25.2257 19.5429 24.628C18.9415 24.0304 18.1277 23.6962 17.2797 23.6976L17.2796 23.6976Z" fill="black"/>
<path d="M50.3921 32.0911C49.0132 32.0823 47.6945 31.5271 46.7249 30.5468C45.7553 29.567 45.2137 28.2422 45.2198 26.8633C45.2258 25.4844 45.7782 24.1648 46.7562 23.1929C47.7342 22.2209 49.058 21.677 50.4365 21.6797C51.8154 21.6825 53.1369 22.2326 54.1106 23.2082C55.0844 24.1844 55.6312 25.5069 55.6312 26.8856C55.6242 28.2697 55.069 29.5949 54.0869 30.5706C53.1052 31.5462 51.7767 32.093 50.3922 32.0911H50.3921ZM50.3921 23.6976C49.5493 23.7102 48.7461 24.0556 48.1573 24.6588C47.569 25.262 47.2432 26.0735 47.2511 26.9164C47.2595 27.7587 47.6012 28.5638 48.2011 29.1553C48.8015 29.7469 49.6116 30.0769 50.454 30.0727C51.2968 30.0685 52.1037 29.731 52.6981 29.1339C53.2924 28.5368 53.6262 27.728 53.6267 26.8856C53.6229 26.0331 53.2794 25.2174 52.6724 24.6188C52.0651 24.0202 51.2446 23.6888 50.3921 23.6977L50.3921 23.6976Z" fill="black"/>
<path d="M13.055 27.894H7.61505C7.32931 27.927 7.04262 27.8366 6.82772 27.645C6.61283 27.4534 6.49023 27.1794 6.49023 26.8917C6.49023 26.6041 6.61283 26.3296 6.82772 26.1384C7.04262 25.9468 7.3293 25.8564 7.61505 25.8895H13.055C13.3408 25.8564 13.6274 25.9469 13.8423 26.1384C14.0572 26.3296 14.1798 26.6041 14.1798 26.8917C14.1798 27.1794 14.0572 27.4534 13.8423 27.645C13.6274 27.8366 13.3408 27.9271 13.055 27.894Z" fill="black"/>
<path d="M46.1696 27.894H25.5594C25.2736 27.927 24.9874 27.8366 24.7725 27.645C24.5576 27.4534 24.4346 27.1794 24.4346 26.8917C24.4346 26.6041 24.5576 26.3296 24.7725 26.1384C24.9874 25.9468 25.2736 25.8564 25.5594 25.8895H46.1696C46.4553 25.8564 46.7415 25.9469 46.9564 26.1384C47.1713 26.3296 47.2944 26.6041 47.2944 26.8917C47.2944 27.1794 47.1713 27.4534 46.9564 27.645C46.7415 27.8366 46.4553 27.9271 46.1696 27.894Z" fill="black"/>
<path d="M41.8184 0.0135041H18.6963C18.4021 -0.0349754 18.1019 0.0484638 17.8744 0.241454C17.6474 0.434441 17.5164 0.717861 17.5164 1.01573C17.5164 1.3136 17.6474 1.59702 17.8744 1.79001C18.1019 1.98299 18.4021 2.06643 18.6963 2.01796H40.8029V17.8894H9.62091C9.33517 17.8563 9.04848 17.9472 8.83358 18.1388C8.61868 18.3299 8.49609 18.604 8.49609 18.8921C8.49609 19.1797 8.61868 19.4538 8.83358 19.6454C9.04848 19.8369 9.33515 19.9274 9.62091 19.8943H41.8184C42.3792 19.8943 42.8342 19.4398 42.8342 18.8785V1.02259C42.8304 0.464144 42.3769 0.0138501 41.8184 0.0138501V0.0135041Z" fill="black"/>
<path d="M21.4758 6.0746H11.6256C11.3315 6.12308 11.0308 6.03964 10.8038 5.84665C10.5763 5.65366 10.4453 5.37024 10.4453 5.07237C10.4453 4.77404 10.5763 4.49108 10.8038 4.2981C11.0308 4.10511 11.3315 4.02167 11.6256 4.07014H21.4758C21.7699 4.02167 22.0706 4.10511 22.2976 4.2981C22.5251 4.49108 22.6561 4.77404 22.6561 5.07237C22.6561 5.37024 22.5251 5.65366 22.2976 5.84665C22.0706 6.03963 21.7699 6.12307 21.4758 6.0746Z" fill="black"/>
<path d="M15.6818 15.3842H5.15669C4.87048 15.4173 4.58425 15.3268 4.36936 15.1353C4.15446 14.9437 4.0314 14.6696 4.0314 14.382C4.0314 14.0943 4.15446 13.8203 4.36936 13.6287C4.58425 13.4371 4.87046 13.3467 5.15669 13.3798H15.6818C15.9676 13.3467 16.2543 13.4371 16.4692 13.6287C16.6841 13.8203 16.8066 14.0943 16.8066 14.382C16.8066 14.6696 16.6841 14.9437 16.4692 15.1353C16.2543 15.3269 15.9676 15.4173 15.6818 15.3842Z" fill="black"/>
<path d="M18.3214 10.9735H1.18029C0.886151 11.0215 0.585476 10.9381 0.358467 10.7451C0.130993 10.5521 0 10.2691 0 9.97081C0 9.67294 0.130993 9.38998 0.358467 9.197C0.585476 9.00354 0.886151 8.92011 1.18029 8.96858H18.3214C18.6156 8.9201 18.9158 9.00354 19.1432 9.197C19.3703 9.38998 19.5012 9.67294 19.5012 9.97081C19.5012 10.2691 19.3703 10.5521 19.1432 10.7451C18.9158 10.9381 18.6156 11.0215 18.3214 10.9735Z" fill="black"/>
<path d="M16.2773 18.9463H18.2887V22.9561H16.2773V18.9463Z" fill="black"/>
<path d="M54.6287 27.8874C54.0749 27.8874 53.6265 27.4385 53.6265 26.8852C53.6265 26.3314 54.0749 25.8825 54.6287 25.8825H56.9679V16.9143L47.8924 6.06837H41.8782C41.3244 6.06837 40.876 5.61947 40.876 5.06616C40.876 4.51238 41.3244 4.06348 41.8782 4.06348H48.3941C48.6896 4.06348 48.9702 4.1926 49.1623 4.41776L58.7654 15.912C58.923 16.0985 59.0064 16.3362 58.9994 16.5805V26.8852C58.9994 27.4385 58.5506 27.8874 57.9968 27.8874L54.6287 27.8874Z" fill="black"/>
</svg>
