<svg width="171" height="169" viewBox="0 0 171 169" fill="none" xmlns="http://www.w3.org/2000/svg">
<ellipse cx="85.7432" cy="84.2261" rx="85.249" ry="84.2261" fill="black"/>
<path d="M85.8475 54.7161C92.2339 54.7161 97.5193 49.4307 97.5193 43.0443C97.5193 36.6573 92.2339 31.3718 85.8475 31.3718C79.4612 31.3718 74.1758 36.6573 74.1758 43.0436C74.1758 49.4307 79.4612 54.7161 85.8475 54.7161ZM85.8475 35.7754C89.8116 35.7754 93.115 39.0788 93.115 43.0428C93.115 47.0069 89.8116 50.3103 85.8475 50.3103C81.8835 50.3103 78.5801 47.0069 78.5801 43.0428C78.5801 39.0788 81.8835 35.7754 85.8475 35.7754Z" fill="#E6FF00"/>
<path d="M119.764 42.1629C119.103 39.08 116.24 36.8774 113.157 36.8774C112.717 36.8774 112.056 36.8774 111.615 37.0979C107.872 37.9791 105.669 41.7227 106.55 45.2466C106.55 45.2466 107.651 50.7525 105.008 54.7166C103.687 56.6986 101.705 58.02 98.8419 59.1208L73.0754 59.1201C70.2122 58.2389 68.0104 56.6979 66.9088 54.7158C64.2661 50.7517 65.3669 45.2458 65.3669 45.2458C66.2481 41.5022 63.8251 37.9783 60.302 37.0972C59.8618 36.8767 59.2011 36.8767 58.7601 36.8767C55.6772 36.8767 52.814 39.0792 52.1533 42.1621C52.1533 42.6023 49.7311 53.1732 55.4567 62.2034C58.5397 67.0486 63.3849 70.5718 69.7712 72.3341L71.9737 93.6967L59.861 127.831C59.2003 129.593 59.4208 131.355 60.0815 133.117C60.9627 134.878 62.284 135.98 64.0456 136.641C64.7063 136.861 65.5874 137.081 66.2481 137.081C69.1113 137.081 71.754 135.319 72.6344 132.456L82.9848 103.165H88.7105L99.0624 132.456C99.9435 135.099 102.586 137.081 105.449 137.081C106.33 137.081 106.991 136.86 107.651 136.641C109.413 135.98 110.734 134.879 111.615 133.117C112.496 131.355 112.496 129.593 111.836 127.831L99.7231 93.6967L101.926 72.3341C108.312 70.352 112.937 67.0486 116.24 62.2034C122.186 53.1744 119.764 42.6039 119.764 42.164V42.1629ZM112.716 59.7808C110.073 63.9653 105.669 67.0482 99.7231 68.5901C98.8419 68.8106 98.1812 69.4712 97.9615 70.5721L95.5393 93.9168C95.5393 94.1373 95.5393 94.5775 95.7597 94.7979L107.872 129.372C108.092 130.033 108.092 130.694 107.872 131.354C107.651 132.015 106.991 132.455 106.55 132.676C105.229 133.116 103.908 132.455 103.467 131.134L92.4556 100.303C92.2351 99.4216 91.3547 98.7609 90.4735 98.7609H81.6642C80.7831 98.7609 79.9027 99.4216 79.6822 100.303L68.8908 130.915C68.4506 132.236 67.1293 132.897 65.8079 132.457C65.1472 132.236 64.707 131.796 64.4865 131.135C64.2661 130.475 64.2661 129.814 64.4865 129.153L76.819 94.3581C76.819 94.1376 77.0395 93.6974 77.0395 93.477L74.6172 70.1323C74.6172 69.2511 73.9565 68.3707 72.8557 68.1503C66.9095 66.6084 62.5052 63.746 59.8625 59.3409C55.0173 51.853 56.9993 43.0444 57.2198 42.8239C57.4403 41.5026 58.7616 40.6214 60.083 41.0624C61.4044 41.2829 62.2855 42.6042 61.8446 44.1453C61.8446 44.3658 60.3027 51.4128 63.8266 56.9187C65.8086 59.7819 68.6719 61.9837 72.8557 63.0853H73.5163H99.7227H100.383C104.568 61.7639 107.43 59.7819 109.412 56.9187C113.156 51.4128 111.615 44.3658 111.394 44.1453C111.174 42.8239 111.835 41.5026 113.156 41.2821C114.477 41.0616 115.799 41.7223 116.019 43.0437C115.359 43.2641 117.561 52.2932 112.716 59.7811L112.716 59.7808Z" fill="#E6FF00"/>
</svg>
