<svg width="171" height="169" viewBox="0 0 171 169" fill="none" xmlns="http://www.w3.org/2000/svg">
<ellipse cx="85.249" cy="84.2261" rx="85.249" ry="84.2261" fill="black"/>
<path d="M128.963 89.4896L115.841 83.4661L109.387 65.3965L107.451 60.4491C107.451 60.2338 107.451 60.2338 107.236 60.0191C106.376 58.5131 92.6089 49.2629 89.1668 49.2629H88.7369L68.5155 51.8443C66.5795 52.0597 65.0734 53.135 63.9981 54.641L52.8119 70.3446C50.6605 73.356 51.3059 77.6588 54.3179 79.8094C55.3933 80.6701 56.8993 81.1001 58.19 81.1001C60.3414 81.1001 62.492 80.0248 63.5681 78.3034L73.0329 64.9665L80.5617 63.8912L58.4061 107.775L42.0572 113.583C40.3365 114.228 39.0458 115.303 38.1851 117.025C37.3244 118.745 37.3244 120.467 37.9698 122.187C38.8305 124.553 40.9811 126.489 43.7778 126.705C44.6385 126.705 45.7139 126.705 46.5746 126.275L65.5052 119.606C67.2259 118.961 68.5166 117.67 69.3773 116.164L76.2607 101.106L93.255 111.861L98.6331 130.792C99.4938 133.589 102.075 135.739 105.087 135.739C105.732 135.739 106.377 135.739 106.807 135.524C110.464 134.449 112.4 130.791 111.54 127.35L105.517 106.054C105.087 104.547 104.01 103.042 102.72 102.181L93.9003 96.5887L101.429 82.8212L104.44 91.426C105.086 93.1466 106.376 94.4373 107.883 95.298L123.586 102.612C124.447 103.042 125.522 103.258 126.383 103.258C128.964 103.258 131.33 101.751 132.406 99.3855C133.912 95.0827 132.406 91.2106 128.963 89.4899L128.963 89.4896ZM128.533 96.5883C127.887 97.6637 126.597 98.309 125.306 97.6637L109.602 90.3495C108.957 90.1342 108.527 89.4888 108.312 89.0589L103.579 75.9366C103.364 75.0759 102.504 74.6459 101.643 74.4306C100.782 74.4306 99.9223 74.8606 99.4916 75.5059L88.7361 95.2958C88.0908 96.3711 88.5208 97.4472 89.3815 98.0925L99.9223 104.761C100.352 104.977 100.783 105.622 100.998 106.052L107.021 127.348C107.236 127.994 107.021 128.639 106.806 129.069C106.59 129.714 105.945 129.93 105.3 130.144C104.009 130.574 102.718 129.714 102.288 128.424L97.1263 109.495C96.911 109.065 96.6963 108.634 96.2656 108.204L76.4757 95.7273C76.0457 95.5119 75.8304 95.2973 75.4004 95.2973H74.755C74.1097 95.5126 73.6797 95.9426 73.4644 96.3726L65.5049 113.582C65.2895 114.227 64.6442 114.657 64.2142 114.872L45.2835 121.541C45.0682 121.541 44.8535 121.756 44.4228 121.756H44.2075C43.3467 121.756 42.4868 121.111 42.0561 120.25C41.8407 119.605 41.8407 118.96 42.0561 118.314C42.2714 117.669 42.9168 117.239 43.3467 117.024L60.341 111C60.771 110.785 61.2017 110.355 61.6317 109.925L86.1548 62.1694C86.5847 61.5241 86.3701 60.6634 85.9394 60.018C85.5094 59.3727 84.6487 58.9427 84.0034 59.1573L71.5265 60.878C70.8811 60.878 70.4512 61.308 70.0204 61.7387L60.1249 75.7209C59.4796 76.7962 57.7589 77.0116 56.6829 76.3662C55.6075 75.5055 55.3922 74.0002 56.0375 72.9242L67.2237 57.2206C67.6537 56.5752 68.299 56.3599 68.9444 56.1452L88.95 53.5639C91.1014 53.7792 102.072 60.878 103.578 62.3833L112.182 85.8314C112.398 86.4767 112.828 86.9067 113.258 87.1221L127.24 93.5755C127.885 93.7909 128.315 94.2209 128.531 94.8662C128.747 95.513 128.747 96.1583 128.532 96.5883L128.533 96.5883Z" fill="#E6FF00"/>
<path d="M108.956 54.4254C115.194 54.4254 120.143 49.478 120.143 43.2392C120.143 37.0011 114.98 32.0537 108.956 32.0537C102.718 32.0537 97.7701 37.0011 97.7701 43.2399C97.5555 49.478 102.718 54.4254 108.956 54.4254ZM108.956 36.3558C112.828 36.3558 115.84 39.3671 115.84 43.2392C115.84 47.112 112.614 50.1233 108.956 50.1233C105.084 50.1233 102.073 47.112 102.073 43.2399C102.073 39.3678 105.084 36.3558 108.956 36.3558Z" fill="#E6FF00"/>
</svg>
