<svg width="171" height="169" viewBox="0 0 171 169" fill="none" xmlns="http://www.w3.org/2000/svg">
<ellipse cx="85.7471" cy="84.2261" rx="85.249" ry="84.2261" fill="black"/>
<path d="M83.9571 69.8478C89.3278 69.8478 93.9026 65.4714 93.9026 59.9023C93.9026 54.5317 89.5263 49.9569 83.9571 49.9569C78.5865 49.9569 74.0117 54.3332 74.0117 59.9023C74.2102 65.4714 78.5865 69.8478 83.9571 69.8478ZM83.9571 54.1334C87.14 54.1334 89.9245 56.7195 89.9245 60.1008C89.9245 63.2836 87.3384 66.0682 83.9571 66.0682C80.7743 66.0682 77.9898 63.4821 77.9898 60.1008C78.1889 56.7195 80.7743 54.1334 83.9571 54.1334Z" fill="#E6FF00"/>
<path d="M131.496 36.8276H123.341C122.147 36.8276 121.351 37.6235 121.351 38.817V43.79L50.1417 43.7894V38.817C50.1417 37.6235 49.3459 36.8277 48.1524 36.8277H39.9972C38.8037 36.8277 38.0078 37.6235 38.0078 38.817V52.9396C38.0078 54.1331 38.8037 54.929 39.9972 54.929H48.1524C49.3459 54.929 50.1417 54.1331 50.1417 52.9396V47.7681H53.7222C53.3239 48.5633 53.1254 49.3592 53.1254 50.3535C53.1254 63.6809 60.6839 80.5877 70.6303 84.3676L67.8458 126.139C67.6466 127.73 68.2434 129.322 69.4369 130.516C70.4312 131.709 72.023 132.306 73.614 132.306C76.3986 132.306 78.7855 130.317 79.1838 127.731L83.361 108.039C83.361 107.84 83.361 107.641 83.9577 107.641C84.3553 107.641 84.3553 108.039 84.5545 108.039L88.7317 127.731C89.3277 130.317 91.7147 132.306 94.4992 132.306C96.0903 132.306 97.6821 131.709 98.6764 130.516C99.6707 129.322 100.267 127.731 100.267 126.139L97.4829 84.5671C107.428 80.7875 114.988 63.8807 114.988 50.553C114.988 49.5587 114.789 48.5636 114.391 47.7684H121.552V52.9399C121.552 54.1334 122.348 54.9293 123.541 54.9293H131.497C132.691 54.9293 133.487 54.1334 133.487 52.9399V38.8174C133.487 37.6239 132.691 36.828 131.497 36.828L131.496 36.8276ZM46.1623 50.9502H41.9852V40.8057H46.1623V50.9502ZM94.8972 81.1861C93.9028 81.3853 93.3061 82.1805 93.3061 83.1755L96.2891 126.339C96.2891 126.935 96.09 127.333 95.8915 127.731C95.4939 128.129 95.0956 128.328 94.4989 128.328C93.703 128.328 92.9078 127.731 92.7087 126.935L88.5315 107.243C88.1339 105.055 86.3437 103.662 84.1552 103.662C81.9674 103.662 80.1771 105.055 79.7789 107.243L75.6017 126.935C75.4025 127.731 74.6074 128.328 73.8115 128.328C73.2147 128.328 72.8171 128.129 72.4189 127.731C72.0219 127.333 71.8228 126.935 71.8228 126.339L74.6073 82.976C74.6073 81.9817 74.0106 81.1858 73.0163 80.9867C64.4628 78.9973 57.1034 62.4878 57.1034 50.3535C57.1034 48.9609 58.2969 47.9665 59.4904 47.9665C60.883 47.9665 61.8774 49.16 61.8774 50.3535C61.8774 59.5037 67.4471 76.4105 76.3982 76.4105C76.995 76.4105 80.7745 76.4105 84.5534 76.6097C87.9347 76.6097 90.9184 76.8088 91.3167 76.8088C100.268 76.8088 105.838 59.901 105.838 50.7518C105.838 49.3592 107.031 48.3648 108.225 48.3648C109.418 48.3648 110.612 49.5583 110.612 50.7518C111.009 62.6866 103.649 79.1958 94.8972 81.1855L94.8972 81.1861ZM102.058 50.553C102.058 59.7032 96.4882 72.6323 91.5159 72.6323C91.1183 72.6323 87.9354 72.6323 84.7526 72.4332C80.973 72.4332 77.1941 72.234 76.5974 72.234C71.4259 72.234 66.0552 59.3049 66.0552 50.1547C66.0552 49.3588 65.8561 48.3645 65.6576 47.7677H102.855C102.257 48.7627 102.058 49.5586 102.058 50.553H102.058ZM129.508 50.9506H125.331V40.806H129.508V50.9506Z" fill="#E6FF00"/>
</svg>
