<svg width="25" height="34" viewBox="0 0 25 34" fill="none" xmlns="http://www.w3.org/2000/svg">
<path d="M6.56289 33.48H19.3629C20.8468 33.4757 22.2686 32.8843 23.3179 31.835C24.3672 30.7858 24.9586 29.3639 24.9629 27.88V13.48C24.9604 12.6321 24.6225 11.8196 24.0229 11.22C23.4233 10.6204 22.6108 10.2825 21.7629 10.28H19.7629V6.88C19.7629 3.08 16.7229 0 12.9629 0C9.20289 0 6.16289 3.08 6.16289 6.88V10.28H4.16289C3.31495 10.2825 2.50244 10.6204 1.90286 11.22C1.30327 11.8196 0.965341 12.6321 0.962891 13.48V27.88C0.967412 29.3638 1.55886 30.7856 2.60809 31.8348C3.65731 32.884 5.07907 33.4755 6.56289 33.48ZM7.76289 6.83714C7.76289 3.91714 10.0829 1.55714 12.9629 1.55714C15.8429 1.55714 18.1629 3.91429 18.1629 6.83714V10.2371H7.76289V6.83714ZM19.7629 11.8764H21.7629C22.1868 11.8777 22.593 12.0467 22.8928 12.3465C23.1926 12.6463 23.3616 13.0525 23.3629 13.4764V27.8764C23.3599 28.9364 22.9375 29.952 22.188 30.7015C21.4385 31.451 20.4228 31.8734 19.3629 31.8764H6.56289C5.50295 31.8734 4.48729 31.451 3.73779 30.7015C2.9883 29.952 2.56591 28.9364 2.56289 27.8764V13.48C2.56421 13.0561 2.7332 12.6499 3.03298 12.3501C3.33275 12.0503 3.73895 11.8813 4.16289 11.88H19.7629V11.8764Z" fill="white"/>
</svg>
