<svg width="21" height="27" viewBox="0 0 21 27" fill="none" xmlns="http://www.w3.org/2000/svg">
<g clip-path="url(#clip0_296_6372)">
<path d="M19.6628 18.3361V23.9358C19.6624 24.2388 19.5419 24.5293 19.3278 24.7436C19.1136 24.958 18.8232 25.0787 18.5202 25.0794H3.10629C2.80313 25.079 2.5125 24.9584 2.29812 24.744C2.08375 24.5296 1.96314 24.239 1.96273 23.9358V12.6532C1.96314 12.35 2.08377 12.0595 2.29816 11.8452C2.51254 11.6309 2.80318 11.5104 3.10629 11.5101H18.5202C18.8234 11.5104 19.114 11.6309 19.3284 11.8452C19.5428 12.0595 19.6634 12.35 19.6638 12.6532V18.3361H19.6628ZM20.8125 14.7909V12.6532C20.8118 12.0454 20.5701 11.4627 20.1404 11.0329C19.7107 10.603 19.128 10.3612 18.5202 10.3604H16.6576V5.84363C16.6576 5.07604 16.5064 4.31597 16.2127 3.60681C15.9189 2.89765 15.4884 2.25329 14.9456 1.71052C14.4028 1.16776 13.7585 0.73721 13.0493 0.443467C12.3402 0.149723 11.5801 -0.00146484 10.8125 -0.00146484C10.0449 -0.00146484 9.28484 0.149723 8.57568 0.443467C7.86652 0.73721 7.22216 1.16776 6.67939 1.71052C6.13663 2.25329 5.70608 2.89765 5.41234 3.60681C5.11859 4.31597 4.9674 5.07604 4.9674 5.84363V10.3604H3.10578C2.49786 10.3611 1.91503 10.6028 1.48512 11.0326C1.05521 11.4625 0.813315 12.0452 0.8125 12.6532L0.8125 23.9358C0.813587 24.5436 1.05567 25.1262 1.48566 25.5558C1.91565 25.9854 2.49846 26.227 3.10629 26.2276H18.5202C19.1282 26.2269 19.711 25.9851 20.1409 25.5553C20.5708 25.1255 20.8127 24.5427 20.8135 23.9348V14.7909H20.8125ZM15.5084 10.3604H6.11558V5.84363C6.11558 4.59807 6.61038 3.40352 7.49113 2.52277C8.37188 1.64203 9.56642 1.14723 10.812 1.14723C12.0576 1.14723 13.2521 1.64203 14.1328 2.52277C15.0136 3.40352 15.5084 4.59807 15.5084 5.84363V10.3604Z" fill="black"/>
</g>
<defs>
<clipPath id="clip0_296_6372">
<rect width="20" height="26.2295" fill="white" transform="translate(0.8125)"/>
</clipPath>
</defs>
</svg>
