<svg width="235" height="78" viewBox="0 0 235 78" fill="none" xmlns="http://www.w3.org/2000/svg">
<path d="M117.345 54.1983L94.2277 77.7702H31.0721L47.1096 62.2127H85.7675L94.2448 54.1983L85.7675 46.6553H78.9102L78.9016 46.6724H15.746L31.7921 31.0978H70.4329L78.9102 23.1005L70.4329 15.5575H0L15.7546 0H78.9102L102.011 23.1005L94.1677 31.0978H94.2448L117.345 54.1983Z" fill="black"/>
<path d="M117.038 54.1983L140.147 77.7702H203.311L187.274 62.2127H148.616L140.139 54.1983L148.616 46.6553H155.473L155.482 46.6724H218.637L202.591 31.0978H163.951L155.473 23.1005L163.951 15.5575H234.383L218.629 0H155.473L132.373 23.1005L140.216 31.0978H140.139L117.038 54.1983Z" fill="black"/>
</svg>
