<svg width="20" height="25" viewBox="0 0 20 25" fill="none" xmlns="http://www.w3.org/2000/svg">
<path d="M10.0003 0C11.4766 0 12.8156 0.599786 13.7864 1.56966C14.7941 2.57742 15.3584 3.93213 15.3584 5.35822C15.3584 6.835 14.7582 8.17441 13.7875 9.14551C12.8192 10.1162 11.4794 10.7164 10.0002 10.7164C8.5209 10.7164 7.18112 10.1162 6.21162 9.14674C5.20048 8.04714 4.64196 6.87732 4.64196 5.35817C4.64196 3.88194 5.24175 2.54285 6.21162 1.57212C7.21939 0.564349 8.5741 0.000136658 10.0002 0.000136658L10.0003 0ZM8.10239 11.7557H11.8984C14.1264 11.7557 16.1526 12.6674 17.6203 14.1351C19.1477 15.7964 20 17.5601 20 19.8569V19.8626C20 21.0643 19.508 22.1573 18.7168 22.9485C17.9247 23.7406 16.8324 24.2319 15.6305 24.2319H4.36949C3.16778 24.2319 2.07534 23.7405 1.2832 22.9485C0.492154 22.1575 0 21.0643 0 19.8626C0 17.7054 0.855269 15.6616 2.37938 14.1371C3.90207 12.6144 5.94639 11.7556 8.10166 11.7556L8.10239 11.7557ZM11.8984 13.0312H8.10239C6.22456 13.0312 4.51721 13.7988 3.28015 15.035C2.04373 16.2723 1.27618 17.9793 1.27618 19.8568C1.27618 20.6826 1.60125 21.4631 2.1852 22.0471C2.74618 22.608 3.51982 22.9563 4.36995 22.9563H15.631C16.4811 22.9563 17.2549 22.6081 17.8157 22.0471C18.376 21.4868 18.7247 20.7128 18.7247 19.8625C18.7247 18.1302 17.9965 16.228 16.7192 15.0366C15.4822 13.7997 13.7752 13.0314 11.8983 13.0314L11.8984 13.0312ZM12.8875 2.46847C12.1505 1.73131 11.13 1.2755 10.0005 1.2755C8.87103 1.2755 7.85028 1.73135 7.11348 2.46847C6.34344 3.23852 5.91801 4.26924 5.91801 5.35799C5.91801 6.47271 6.36211 7.48134 7.08219 8.21581C7.9284 9.00508 8.82265 9.44048 10.0005 9.44048C11.1282 9.44048 12.1495 8.98322 12.8875 8.24501C13.6271 7.50803 14.083 6.48746 14.083 5.35799C14.083 4.26928 13.6576 3.23856 12.8875 2.46847Z" fill="black"/>
</svg>
