<svg width="92" height="31" viewBox="0 0 92 31" fill="none" xmlns="http://www.w3.org/2000/svg">
<path d="M46.3841 20.9672L37.4408 30.0863H13.0084L19.2127 24.0677H34.1679L37.4475 20.9672L34.1679 18.0491H31.5151L31.5118 18.0557H7.07933L13.2869 12.0305H28.2356L31.5151 8.93668L28.2356 6.01858H0.987793L7.08264 0H31.5151L40.4518 8.93668L37.4176 12.0305H37.4475L46.3841 20.9672Z" fill="#E6FF00"/>
<path d="M46.2646 20.9672L55.2046 30.0863H79.6404L73.4361 24.0677H58.4809L55.2013 20.9672L58.4809 18.0491H61.1337L61.137 18.0557H85.5695L79.3619 12.0305H64.4132L61.1337 8.93668L64.4132 6.01858H91.661L85.5662 0H61.1337L52.197 8.93668L55.2312 12.0305H55.2013L46.2646 20.9672Z" fill="#E6FF00"/>
</svg>
