<svg width="92" height="53" viewBox="0 0 92 53" fill="none" xmlns="http://www.w3.org/2000/svg">
<g clip-path="url(#clip0_296_3961)">
<path d="M46.3846 20.9672L37.4413 30.0863H13.0089L19.2131 24.0677H34.1684L37.448 20.9672L34.1684 18.0491H31.5156L31.5123 18.0557H7.07982L13.2874 12.0305H28.236L31.5156 8.93668L28.236 6.01858H0.988281L7.08313 0H31.5156L40.4523 8.93668L37.4181 12.0305H37.448L46.3846 20.9672Z" fill="#E6FF00"/>
<path d="M46.2656 20.9672L55.2056 30.0863H79.6414L73.4371 24.0677H58.4819L55.2023 20.9672L58.4819 18.0491H61.1347L61.138 18.0557H85.5704L79.3629 12.0305H64.4142L61.1347 8.93668L64.4142 6.01858H91.662L85.5671 0H61.1347L52.198 8.93668L55.2322 12.0305H55.2023L46.2656 20.9672Z" fill="#E6FF00"/>
<path d="M16.6496 50.115C15.4299 50.1172 14.2115 50.0396 13.002 49.8828V40.1238C14.1881 39.9664 15.3834 39.8889 16.5799 39.8917C18.3043 39.8917 19.896 40.2233 21.2555 41.1087V44.0699C20.6387 44.5093 19.9376 44.8164 19.1963 44.9718C20.0168 45.1057 20.7941 45.4318 21.4644 45.9235V48.888C20.0817 49.8033 18.4038 50.115 16.6496 50.115ZM14.4477 44.4578H16.7126C17.8026 44.4912 18.8805 44.2215 19.8263 43.6786V41.8514C18.8577 41.3098 17.7585 41.0459 16.6496 41.0888C15.9142 41.0863 15.1792 41.1228 14.4477 41.1982V44.4578ZM14.4477 45.5488V48.8217C15.2059 48.8968 15.9673 48.9334 16.7292 48.9312C17.9727 48.9312 19.0769 48.7587 20.0452 48.1983V46.3413C19.1996 45.7809 18.0191 45.5488 16.8054 45.5488H14.4477Z" fill="white"/>
<path d="M27.2181 50.1151C25.8115 50.1181 24.4369 49.6949 23.2754 48.9014V42.9326C24.4341 42.1392 25.8056 41.7146 27.2099 41.7146C28.6142 41.7146 29.9856 42.1392 31.1443 42.9326V48.9014C29.989 49.695 28.6197 50.1183 27.2181 50.1151ZM29.7383 48.0824V43.7716C28.9978 43.2634 28.116 43.0012 27.2181 43.0221C26.3152 43.0096 25.4296 43.2709 24.6781 43.7716V48.0824C25.4296 48.583 26.3152 48.8443 27.2181 48.8318C28.116 48.8528 28.9978 48.5906 29.7383 48.0824Z" fill="white"/>
<path d="M39.6528 48.9312C38.736 49.6776 37.5951 50.0945 36.413 50.115C35.1821 50.15 33.9838 49.7162 33.0605 48.9014V42.9325C34.1812 42.1417 35.5189 41.7166 36.8906 41.7155C37.8215 41.7083 38.7409 41.9219 39.5732 42.3389V39.1887H41.0091V49.8696H39.7854L39.6528 48.9312ZM36.7314 48.8516C37.7597 48.8269 38.754 48.4788 39.5732 47.8568V43.7715C38.8231 43.2677 37.9366 43.0062 37.0331 43.022C36.1319 43.0141 35.2487 43.275 34.4964 43.7715V48.1221C35.129 48.6268 35.9228 48.8859 36.7314 48.8516Z" fill="white"/>
<path d="M46.4177 53H44.9322L46.3216 49.8829L45.9601 50.6953L42.3125 41.9609H43.8611L46.6863 48.8516L49.5282 41.9609H50.9806L46.4177 53Z" fill="white"/>
<path d="M59.6815 42.9458V46.358H53.4275V48.1188C54.3054 48.6528 55.3224 48.9137 56.3489 48.8682C57.4582 48.8803 58.559 48.6741 59.5887 48.2613V49.5082C58.5251 49.9195 57.3931 50.1254 56.2528 50.115C54.7615 50.1552 53.2945 49.7311 52.0547 48.9013V42.9325C53.1676 42.1361 54.503 41.7103 55.8714 41.7155C57.2408 41.705 58.577 42.1364 59.6815 42.9458ZM53.4408 45.4693H58.2954V43.725C57.5886 43.2194 56.737 42.9564 55.8681 42.9756C55.0008 42.967 54.1523 43.2289 53.4408 43.725V45.4693Z" fill="white"/>
<path d="M65.72 50.115C65.1209 50.1424 64.5225 50.049 63.9602 49.8405C63.398 49.6321 62.8834 49.3126 62.4471 48.9013V43.148H60.9316V42.1134L62.4471 41.9575V40.1238H63.8829V41.9476H67.5073V43.1347H63.8829V48.2149C64.3306 48.6659 64.9706 48.9146 65.9123 48.9146C66.4979 48.9184 67.0784 48.8057 67.6201 48.583V49.7402C67.0158 49.9831 66.3712 50.1102 65.72 50.115Z" fill="white"/>
<path d="M70.6843 39.0461V40.5118H68.9434V39.0461H70.6843ZM69.1025 49.8829V41.9609H70.5417V49.8829H69.1025Z" fill="white"/>
<path d="M74.0194 48.0824C74.8112 48.5867 75.7336 48.8473 76.6722 48.8319C77.6946 48.8371 78.7048 48.6104 79.6268 48.1687V49.4619C78.6467 49.8984 77.586 50.1243 76.5131 50.1251C75.1061 50.1301 73.7309 49.7068 72.5703 48.9114V42.9426C73.7349 42.157 75.1083 41.7388 76.5131 41.7422C77.5873 41.7296 78.6509 41.9561 79.6268 42.4054V43.702C78.7075 43.2525 77.6954 43.0254 76.6722 43.0388C75.7355 43.0195 74.8135 43.2742 74.0194 43.7716V48.0824Z" fill="white"/>
</g>
<defs>
<clipPath id="clip0_296_3961">
<rect width="90.6733" height="53" fill="white" transform="translate(0.988281)"/>
</clipPath>
</defs>
</svg>
