<svg width="112" height="38" viewBox="0 0 112 38" fill="none" xmlns="http://www.w3.org/2000/svg">
<path d="M55.6967 25.9583L44.7282 37.1467H14.7491L22.3616 29.7645H40.7071L44.7333 25.9583L40.7071 22.3772H37.4534L37.4483 22.3823H7.4692L15.0868 14.9949H33.4272L37.4534 11.1938L33.4272 7.6127H0L7.47943 0.230469H37.4534L48.4168 11.1938L44.6924 14.9949H44.7333L55.6967 25.9583Z" fill="black"/>
<path d="M55.5537 25.9583L66.5222 37.1467H96.5013L88.8888 29.7645H70.5433L66.5171 25.9583L70.5433 22.3772H73.7919L73.8021 22.3823H103.776L96.1585 14.9949H77.8181L73.7919 11.1938L77.8181 7.6127H111.25L103.771 0.230469H73.7919L62.8285 11.1938L66.5529 14.9949H66.5171L55.5537 25.9583Z" fill="black"/>
</svg>
