<svg width="199" height="116" viewBox="0 0 199 116" fill="none" xmlns="http://www.w3.org/2000/svg">
<g clip-path="url(#clip0_296_5407)">
<path d="M99.4557 45.8905L79.8817 65.8492H26.4069L39.986 52.6765H72.7183L79.8962 45.8905L72.7183 39.5037H66.9121L66.9049 39.5182H13.4301L27.0165 26.331H59.7343L66.9121 19.5595L59.7343 13.1727H0.0976562L13.4373 0H66.9121L86.4717 19.5595L79.8309 26.331H79.8962L99.4557 45.8905Z" fill="#E6FF00"/>
<path d="M99.1943 45.8905L118.761 65.8492H172.243L158.664 52.6765H125.932L118.754 45.8905L125.932 39.5037H131.738L131.745 39.5182H185.22L171.634 26.331H138.916L131.738 19.5595L138.916 13.1727H198.552L185.213 0H131.738L112.178 19.5595L118.819 26.331H118.754L99.1943 45.8905Z" fill="#E6FF00"/>
<path d="M34.3761 109.688C31.7067 109.693 29.0398 109.523 26.3926 109.18V87.8203C28.9886 87.4758 31.6049 87.3061 34.2236 87.3122C37.9977 87.3122 41.4814 88.038 44.457 89.9758V96.4569C43.1069 97.4187 41.5724 98.0909 39.95 98.431C41.7459 98.724 43.447 99.4378 44.9143 100.514V107.002C41.8878 109.006 38.2154 109.688 34.3761 109.688ZM29.5569 97.3061H34.514C36.8997 97.3792 39.2589 96.7887 41.329 95.6005V91.6015C39.209 90.4161 36.8031 89.8385 34.3761 89.9323C32.7666 89.9268 31.1579 90.0068 29.5569 90.1718V97.3061ZM29.5569 99.6939V106.857C31.2162 107.022 32.8828 107.102 34.5502 107.097C37.2719 107.097 39.6887 106.719 41.808 105.493V101.428C39.9572 100.202 37.3735 99.6939 34.7172 99.6939H29.5569Z" fill="white"/>
<path d="M57.5064 109.686C54.4276 109.693 51.4191 108.767 48.877 107.03V93.9662C51.4129 92.2297 54.4147 91.3004 57.4882 91.3004C60.5618 91.3004 63.5635 92.2297 66.0995 93.9662V107.03C63.571 108.767 60.5739 109.693 57.5064 109.686ZM63.0222 105.237V95.8024C61.4014 94.6902 59.4716 94.1163 57.5064 94.1622C55.5301 94.1348 53.5919 94.7067 51.947 95.8024V105.237C53.5919 106.333 55.5301 106.905 57.5064 106.878C59.4716 106.924 61.4014 106.35 63.0222 105.237Z" fill="white"/>
<path d="M84.7223 107.096C82.7157 108.73 80.2186 109.642 77.6315 109.687C74.9374 109.764 72.3147 108.814 70.2939 107.031V93.9671C72.7467 92.2362 75.6746 91.3059 78.6766 91.3035C80.7141 91.2876 82.7264 91.7552 84.5481 92.668V85.7731H87.6907V109.15H85.0126L84.7223 107.096ZM78.3282 106.922C80.5788 106.868 82.7551 106.106 84.5481 104.745V95.8033C82.9063 94.7008 80.966 94.1283 78.9887 94.163C77.0161 94.1457 75.083 94.7167 73.4365 95.8033V105.325C74.8212 106.43 76.5585 106.997 78.3282 106.922Z" fill="white"/>
<path d="M99.528 116H96.2766L99.3175 109.178L98.5264 110.956L90.543 91.8391H93.9323L100.116 106.921L106.336 91.8391H109.515L99.528 116Z" fill="white"/>
<path d="M128.559 93.9934V101.462H114.871V105.315C116.792 106.484 119.018 107.055 121.265 106.956C123.693 106.982 126.102 106.531 128.356 105.628V108.356C126.028 109.257 123.55 109.707 121.054 109.685C117.79 109.773 114.58 108.844 111.866 107.028V93.9644C114.302 92.2214 117.225 91.2894 120.22 91.3008C123.217 91.2777 126.141 92.222 128.559 93.9934ZM114.9 99.5166H125.525V95.699C123.978 94.5922 122.114 94.0167 120.213 94.0588C118.314 94.0399 116.457 94.6132 114.9 95.699V99.5166Z" fill="white"/>
<path d="M141.775 109.684C140.464 109.744 139.154 109.54 137.924 109.083C136.693 108.627 135.567 107.928 134.612 107.028V94.4355H131.295V92.1711L134.612 91.83V87.8165H137.754V91.8082H145.687V94.4065H137.754V105.525C138.734 106.512 140.135 107.057 142.196 107.057C143.478 107.065 144.748 106.818 145.934 106.331V108.864C144.611 109.395 143.2 109.674 141.775 109.684Z" fill="white"/>
<path d="M152.64 85.4611V88.669H148.83V85.4611H152.64ZM149.178 109.179V91.8406H152.328V109.179H149.178Z" fill="white"/>
<path d="M159.941 105.238C161.674 106.342 163.693 106.912 165.747 106.878C167.985 106.89 170.196 106.394 172.214 105.427V108.257C170.069 109.213 167.747 109.707 165.399 109.709C162.32 109.72 159.31 108.793 156.77 107.052V93.9886C159.318 92.2692 162.324 91.354 165.399 91.3613C167.75 91.3337 170.078 91.8295 172.214 92.8129V95.6506C170.202 94.667 167.987 94.1698 165.747 94.1991C163.697 94.157 161.679 94.7145 159.941 95.803V105.238Z" fill="white"/>
</g>
<defs>
<clipPath id="clip0_296_5407">
<rect width="198.455" height="116" fill="white" transform="translate(0.0976562)"/>
</clipPath>
</defs>
</svg>
