<svg width="171" height="169" viewBox="0 0 171 169" fill="none" xmlns="http://www.w3.org/2000/svg">
<ellipse cx="85.7432" cy="84.2261" rx="85.249" ry="84.2261" fill="#D4A27A" fill-opacity="0.2"/>
<path d="M107.906 42.577C107.906 40.0532 105.854 38 103.329 38H67.826C65.3022 38 63.249 40.0525 63.249 42.577L63.2497 48.1846H107.907L107.906 42.577Z" fill="#D5A27A"/>
<path d="M51.4951 73.0886H119.667V109.821H51.4951V73.0886Z" fill="#D5A27A"/>
<path d="M51.4945 120.078C51.4945 126.1 56.3935 131 62.4151 131H108.745C114.766 131 119.666 126.1 119.666 120.078V111.806H51.4941L51.4945 120.078Z" fill="#D5A27A"/>
<path d="M108.695 50.1707H62.4661C56.9585 54.9644 51.4941 61.7732 51.4941 65.4758V71.1028H119.666V65.4758C119.666 61.7727 114.202 54.9644 108.696 50.1707H108.695Z" fill="#D5A27A"/>
</svg>
