<svg width="264" height="52" viewBox="0 0 264 52" fill="none" xmlns="http://www.w3.org/2000/svg">
<path d="M70.025 12C69.2036 12 68.5378 12.6658 68.5378 13.4872V24.2702H57.7548C56.9334 24.2702 56.2676 24.936 56.2676 25.7574C56.2676 26.5788 56.9334 27.2446 57.7548 27.2446H68.5378V38.0276C68.5378 38.8491 69.2036 39.5148 70.025 39.5148C70.8464 39.5148 71.5122 38.8491 71.5122 38.0276V27.2446H82.2952C83.1166 27.2446 83.7824 26.5788 83.7824 25.7574C83.7824 24.936 83.1166 24.2702 82.2952 24.2702H71.5122V13.4872C71.5122 12.6658 70.8464 12 70.025 12V12Z" fill="white"/>
<path d="M195.413 12C194.591 12 193.926 12.6658 193.926 13.4872V24.2702H183.142C182.321 24.2702 181.655 24.936 181.655 25.7574C181.655 26.5788 182.321 27.2446 183.142 27.2446H193.926V38.0276C193.926 38.8491 194.591 39.5148 195.413 39.5148C196.234 39.5148 196.9 38.8491 196.9 38.0276V27.2446H207.683C208.504 27.2446 209.17 26.5788 209.17 25.7574C209.17 24.936 208.504 24.2702 207.683 24.2702H196.9V13.4872C196.9 12.6658 196.234 12 195.413 12V12Z" fill="white"/>
<path d="M164.486 4.00117C164.438 4.00219 164.391 4.00675 164.343 4.01385C158.534 4.92445 154.103 9.9348 154.103 15.9948V33.3136C154.103 33.9413 154.612 34.4493 155.239 34.4493H157.642V46.2959C157.643 46.9231 158.151 47.4316 158.778 47.4316H164.519C165.146 47.4316 165.655 46.9231 165.655 46.2959V33.3149V33.3144V33.3134V5.13572C165.655 4.82897 165.531 4.5349 165.31 4.32094C165.09 4.10699 164.793 3.99138 164.486 4.0005L164.486 4.00117ZM100.901 4.01385H100.901C100.274 4.02348 99.7737 4.53912 99.7823 5.1658V13.4824C99.7823 16.4556 101.404 19.056 103.81 20.4454V46.2984C103.81 46.9256 104.319 47.4341 104.946 47.4341H110.689C111.316 47.4341 111.825 46.9256 111.825 46.2984V20.4454C114.23 19.0562 115.852 16.4557 115.852 13.4824V5.1658C115.856 4.8621 115.738 4.56903 115.525 4.35254C115.312 4.13604 115.02 4.01435 114.717 4.01435C114.412 4.01435 114.121 4.13604 113.908 4.35254C113.694 4.56904 113.576 4.8621 113.581 5.1658V13.4824C113.581 16.6949 111.03 19.2457 107.818 19.2457C104.605 19.2457 102.054 16.6949 102.054 13.4824L102.054 5.1658C102.058 4.85905 101.938 4.56295 101.721 4.34595C101.504 4.12894 101.208 4.00928 100.901 4.01385H100.901ZM107.8 4.01385H107.8C107.173 4.02348 106.673 4.53912 106.681 5.1658V13.2158C106.677 13.5195 106.795 13.8126 107.009 14.0286C107.222 14.2451 107.513 14.3673 107.817 14.3673C108.121 14.3673 108.412 14.2451 108.626 14.0286C108.839 13.8126 108.957 13.5195 108.953 13.2158V5.1658C108.957 4.85905 108.837 4.56295 108.62 4.34595C108.403 4.12894 108.107 4.00928 107.8 4.01385H107.8ZM163.383 6.5667V32.1783H156.374V15.9952C156.374 11.5086 159.318 7.78445 163.383 6.56605V6.5667ZM133.376 9.40601C124.196 9.40601 116.73 16.8723 116.73 26.0525C116.73 35.2327 124.196 42.699 133.376 42.699C142.556 42.699 150.023 35.2327 150.023 26.0525C150.023 16.8719 142.556 9.40601 133.376 9.40601V9.40601ZM133.376 11.6775C141.329 11.6775 147.751 18.1003 147.751 26.0525C147.751 34.0052 141.329 40.4275 133.376 40.4275C125.424 40.4275 119.001 34.0052 119.001 26.0525C119.001 18.0998 125.424 11.6775 133.376 11.6775V11.6775ZM133.376 19.3431C129.684 19.3431 126.666 22.3609 126.666 26.053C126.666 29.7451 129.684 32.7629 133.376 32.7629C137.068 32.7629 140.086 29.7456 140.086 26.053C140.086 22.3609 137.068 19.3431 133.376 19.3431ZM106.081 21.3287C106.641 21.4524 107.221 21.5178 107.817 21.5178C108.413 21.5178 108.994 21.4524 109.552 21.3287V45.162H106.081L106.081 21.3287ZM133.376 21.6146C135.841 21.6146 137.815 23.5884 137.815 26.053C137.815 28.5176 135.841 30.4914 133.376 30.4914C130.912 30.4914 128.938 28.5176 128.938 26.053C128.938 23.5884 130.912 21.6146 133.376 21.6146V21.6146ZM159.913 34.4518H163.383V45.1611H159.913V34.4518Z" fill="white"/>
<path d="M36.9218 46.948H7.9931C6.14587 46.948 4.64258 45.4447 4.64258 43.5975L4.64297 3.35247C4.64297 1.50525 6.14626 0.00195312 7.99348 0.00195312H31.8911C32.1128 0.00195312 32.3237 0.090563 32.4792 0.24611L40.0235 7.79032C40.1786 7.94549 40.2676 8.15637 40.2676 8.37848V43.5974C40.273 45.4443 38.7698 46.9475 36.9224 46.9475L36.9218 46.948ZM7.9931 1.66592C7.06134 1.66592 6.30684 2.42046 6.30684 3.35217V43.5972C6.30684 44.529 7.06138 45.2835 7.9931 45.2835H36.9218C37.8482 45.2835 38.6081 44.5289 38.6081 43.5972L38.6085 8.72703L31.5468 1.66533L7.9931 1.66592Z" fill="white"/>
<path d="M32.2792 51.5896H3.35052C1.5033 51.5896 0 50.0863 0 48.2391V7.99407C0 6.14685 1.5033 4.64355 3.35052 4.64355H5.4752C5.93566 4.64355 6.30712 5.01541 6.30712 5.47548V43.5957C6.30712 44.5275 7.06166 45.282 7.99338 45.282H34.7924C35.2528 45.282 35.6243 45.6539 35.6243 46.1139V48.2386C35.6301 50.0858 34.1268 51.5891 32.2799 51.5891L32.2792 51.5896ZM3.35052 6.30851C2.42417 6.30851 1.66426 7.06305 1.66426 7.99477V48.2398C1.66426 49.1716 2.4188 49.9261 3.35052 49.9261H32.2792C33.211 49.9261 33.9655 49.1715 33.9655 48.2398V46.9474L7.99364 46.947C6.14641 46.947 4.64312 45.4437 4.64312 43.5965L4.64351 6.30832L3.35052 6.30851Z" fill="white"/>
<path d="M39.4396 9.20956H34.4081C32.5609 9.20956 31.0576 7.70627 31.0576 5.85905L31.058 0.833467C31.058 0.495275 31.2631 0.195398 31.5738 0.0622848C31.8845 -0.0654101 32.2451 0.00695232 32.4781 0.245313L40.0223 7.78953C40.2606 8.02788 40.333 8.3831 40.2053 8.69381C40.0776 9.00452 39.7723 9.2096 39.4396 9.2096V9.20956ZM32.7219 2.84166V5.86489C32.7219 6.79123 33.4764 7.55114 34.4081 7.55114H37.4314L32.7219 2.84166Z" fill="white"/>
<path d="M28.54 12.1385H12.9354C12.475 12.1385 12.1035 11.7666 12.1035 11.3065C12.1035 10.8461 12.4754 10.4746 12.9354 10.4746H28.54C29.0004 10.4746 29.3719 10.8465 29.3719 11.3065C29.3719 11.7666 29.0004 12.1385 28.54 12.1385V12.1385Z" fill="white"/>
<path d="M31.6573 20.4597H12.9354C12.475 20.4597 12.1035 20.0879 12.1035 19.6278C12.1035 19.1674 12.4754 18.7959 12.9354 18.7959H31.6573C32.1177 18.7959 32.4892 19.1677 32.4892 19.6278C32.4892 20.0879 32.1177 20.4597 31.6573 20.4597Z" fill="white"/>
<path d="M31.6573 28.7801H12.9354C12.475 28.7801 12.1035 28.4082 12.1035 27.9481C12.1035 27.4877 12.4754 27.1162 12.9354 27.1162H31.6573C32.1177 27.1162 32.4892 27.4881 32.4892 27.9481C32.4892 28.4082 32.1177 28.7801 31.6573 28.7801Z" fill="white"/>
<path d="M31.6573 37.1013H12.9354C12.475 37.1013 12.1035 36.7295 12.1035 36.2694C12.1035 35.809 12.4754 35.4375 12.9354 35.4375H31.6573C32.1177 35.4375 32.4892 35.8094 32.4892 36.2694C32.4892 36.7295 32.1177 37.1013 31.6573 37.1013Z" fill="white"/>
<path d="M256.374 49.9996H231.719C229.988 49.998 228.329 49.3098 227.106 48.0863C225.882 46.8627 225.194 45.2037 225.192 43.4733V17.4708C225.194 15.7405 225.883 14.0817 227.106 12.8584C228.33 11.635 229.989 10.947 231.719 10.9453H256.374C258.105 10.947 259.764 11.635 260.987 12.8584C262.211 14.0817 262.899 15.7405 262.901 17.4708V43.4742C262.899 45.2044 262.211 46.8632 260.987 48.0866C259.764 49.31 258.105 49.998 256.374 49.9996V49.9996ZM231.719 12.0693C230.284 12.0707 228.908 12.6414 227.893 13.6561C226.879 14.6707 226.308 16.0465 226.307 17.4815V43.4849C226.308 44.9199 226.879 46.2957 227.893 47.3104C228.908 48.325 230.284 48.8957 231.719 48.8971H256.374C257.809 48.8955 259.185 48.3247 260.2 47.3101C261.214 46.2955 261.785 44.9198 261.787 43.4849V17.4708C261.785 16.0358 261.215 14.66 260.2 13.6453C259.185 12.6306 257.809 12.06 256.374 12.0585L231.719 12.0693Z" fill="white" stroke="white"/>
<path d="M232.287 12.0692C232.214 12.0699 232.141 12.056 232.073 12.0283C232.005 12.0005 231.943 11.9594 231.891 11.9075C231.839 11.8556 231.798 11.7939 231.77 11.7259C231.743 11.6579 231.729 11.5851 231.73 11.5117V8.55862C231.735 8.41474 231.796 8.27867 231.9 8.17891C232.004 8.07915 232.143 8.02344 232.287 8.02344C232.431 8.02344 232.569 8.07915 232.673 8.17891C232.777 8.27867 232.838 8.41474 232.844 8.55862V11.4992C232.845 11.5731 232.831 11.6465 232.803 11.7151C232.776 11.7837 232.735 11.8462 232.683 11.899C232.632 11.9518 232.57 11.9939 232.502 12.0228C232.434 12.0517 232.361 12.0669 232.287 12.0674V12.0692Z" fill="white" stroke="white"/>
<path d="M255.806 12.0692C255.732 12.0699 255.659 12.056 255.591 12.0283C255.523 12.0005 255.462 11.9594 255.41 11.9075C255.358 11.8556 255.317 11.7939 255.289 11.7259C255.261 11.6579 255.247 11.5851 255.248 11.5117V8.55862C255.254 8.41474 255.315 8.27867 255.419 8.17891C255.523 8.07915 255.661 8.02344 255.805 8.02344C255.949 8.02344 256.088 8.07915 256.191 8.17891C256.295 8.27867 256.356 8.41474 256.362 8.55862V11.4992C256.362 11.6479 256.304 11.7907 256.2 11.8969C256.096 12.0032 255.954 12.0644 255.806 12.0674V12.0692Z" fill="white" stroke="white"/>
<path d="M257.487 9.11834H230.604C230.132 9.11622 229.68 8.92783 229.346 8.59415C229.013 8.26048 228.824 7.80852 228.822 7.33664V2.7817C228.824 2.30997 229.013 1.85815 229.346 1.5245C229.68 1.19085 230.131 1.00235 230.603 1L257.497 1C257.969 1.00212 258.421 1.19051 258.754 1.52419C259.088 1.85787 259.276 2.30982 259.279 2.7817V7.33664C259.275 7.80941 259.085 8.26162 258.75 8.59517C258.415 8.92872 257.962 9.11671 257.489 9.11834H257.487ZM230.604 2.11323C230.427 2.11347 230.257 2.18394 230.131 2.30923C230.006 2.43451 229.935 2.6044 229.935 2.7817V7.33664C229.935 7.51363 230.006 7.68315 230.131 7.80822C230.256 7.93329 230.426 8.00375 230.603 8.00422H257.497C257.674 8.00351 257.843 7.93295 257.968 7.80791C258.093 7.68287 258.164 7.51347 258.164 7.33664V2.7817C258.164 2.60471 258.094 2.43509 257.968 2.30986C257.843 2.18462 257.674 2.11394 257.497 2.11323H230.604Z" fill="white" stroke="white"/>
<path d="M262.343 21.5462H225.75C225.675 21.5492 225.6 21.537 225.53 21.5104C225.459 21.4838 225.395 21.4432 225.341 21.3912C225.287 21.3392 225.244 21.2767 225.215 21.2076C225.185 21.1386 225.17 21.0642 225.17 20.9892C225.17 20.9141 225.185 20.8397 225.215 20.7707C225.244 20.7016 225.287 20.6391 225.341 20.5871C225.395 20.5351 225.459 20.4945 225.53 20.4679C225.6 20.4413 225.675 20.4291 225.75 20.4321H262.344C262.419 20.4291 262.494 20.4413 262.564 20.4679C262.634 20.4945 262.698 20.5351 262.753 20.5871C262.807 20.6391 262.85 20.7016 262.879 20.7707C262.909 20.8397 262.924 20.9141 262.924 20.9892C262.924 21.0642 262.909 21.1386 262.879 21.2076C262.85 21.2767 262.807 21.3392 262.753 21.3912C262.698 21.4432 262.634 21.4838 262.564 21.5104C262.494 21.537 262.419 21.5492 262.344 21.5462H262.343Z" fill="white" stroke="white"/>
<path d="M262.343 40.5111H225.75C225.675 40.5141 225.6 40.5019 225.53 40.4752C225.459 40.4486 225.395 40.4081 225.341 40.356C225.287 40.304 225.244 40.2416 225.215 40.1725C225.185 40.1034 225.17 40.0291 225.17 39.954C225.17 39.8789 225.185 39.8046 225.215 39.7355C225.244 39.6664 225.287 39.604 225.341 39.552C225.395 39.4999 225.459 39.4594 225.53 39.4327C225.6 39.4061 225.675 39.3939 225.75 39.3969H262.344C262.488 39.4027 262.624 39.4639 262.724 39.5678C262.824 39.6716 262.879 39.81 262.879 39.954C262.879 40.098 262.824 40.2364 262.724 40.3402C262.624 40.4441 262.488 40.5053 262.344 40.5111H262.343Z" fill="white" stroke="white"/>
<path d="M244.046 37.4944C242.656 37.4946 241.297 37.0826 240.141 36.3105C238.986 35.5384 238.085 34.441 237.553 33.1569C237.021 31.8728 236.881 30.4598 237.153 29.0965C237.424 27.7332 238.093 26.481 239.076 25.4981C240.058 24.5152 241.311 23.8458 242.674 23.5746C244.037 23.3033 245.45 23.4424 246.734 23.9743C248.018 24.5062 249.116 25.4069 249.888 26.5626C250.66 27.7183 251.073 29.077 251.073 30.4669C251.071 32.33 250.33 34.1162 249.012 35.4337C247.695 36.7512 245.909 37.4923 244.046 37.4944ZM244.046 24.5652C242.876 24.565 241.733 24.9117 240.76 25.5614C239.788 26.2111 239.03 27.1347 238.582 28.2152C238.134 29.2958 238.017 30.4848 238.245 31.632C238.473 32.7792 239.037 33.8329 239.864 34.66C240.691 35.487 241.744 36.0502 242.892 36.2784C244.039 36.5065 245.228 36.3893 246.308 35.9416C247.389 35.494 248.313 34.7359 248.962 33.7633C249.612 32.7907 249.959 31.6473 249.958 30.4777C249.957 28.9099 249.334 27.4066 248.226 26.298C247.117 25.1894 245.614 24.5662 244.046 24.5652V24.5652Z" fill="white" stroke="white"/>
</svg>
