<svg width="375" height="52" viewBox="0 0 375 52" fill="none" xmlns="http://www.w3.org/2000/svg">
<path d="M81.3473 12C80.5258 12 79.8601 12.6658 79.8601 13.4872V24.2703H69.077C68.2556 24.2703 67.5898 24.936 67.5898 25.7574C67.5898 26.5789 68.2556 27.2446 69.077 27.2446H79.8601V38.0277C79.8601 38.8491 80.5258 39.5149 81.3473 39.5149C82.1687 39.5149 82.8344 38.8491 82.8344 38.0277V27.2446H93.6175C94.4389 27.2446 95.1047 26.5789 95.1047 25.7574C95.1047 24.936 94.4389 24.2703 93.6175 24.2703H82.8344V13.4872C82.8344 12.6658 82.1687 12 81.3473 12V12Z" fill="white"/>
<path d="M181.13 12C180.309 12 179.643 12.6658 179.643 13.4872V24.2703H168.86C168.039 24.2703 167.373 24.936 167.373 25.7574C167.373 26.5789 168.039 27.2446 168.86 27.2446H179.643V38.0277C179.643 38.8491 180.309 39.5149 181.13 39.5149C181.952 39.5149 182.618 38.8491 182.618 38.0277V27.2446H193.401C194.222 27.2446 194.888 26.5789 194.888 25.7574C194.888 24.936 194.222 24.2703 193.401 24.2703H182.618V13.4872C182.618 12.6658 181.952 12 181.13 12V12Z" fill="white"/>
<path d="M306.517 12C305.696 12 305.03 12.6658 305.03 13.4872V24.2703H294.247C293.426 24.2703 292.76 24.936 292.76 25.7574C292.76 26.5789 293.426 27.2446 294.247 27.2446H305.03V38.0277C305.03 38.8491 305.696 39.5149 306.517 39.5149C307.339 39.5149 308.004 38.8491 308.004 38.0277V27.2446H318.787C319.609 27.2446 320.275 26.5789 320.275 25.7574C320.275 24.936 319.609 24.2703 318.787 24.2703H308.004V13.4872C308.004 12.6658 307.339 12 306.517 12V12Z" fill="white"/>
<path d="M24.8279 17.8414C27.7299 17.8414 30.2018 15.4768 30.2018 12.4676C30.2018 9.56568 27.8371 7.09378 24.8279 7.09378C21.926 7.09378 19.4541 9.45844 19.4541 12.4676C19.5613 15.4768 21.926 17.8414 24.8279 17.8414ZM24.8279 9.35047C26.5477 9.35047 28.0523 10.7478 28.0523 12.5748C28.0523 14.2946 26.655 15.7992 24.8279 15.7992C23.1081 15.7992 21.6036 14.4019 21.6036 12.5748C21.7112 10.7478 23.1081 9.35047 24.8279 9.35047Z" fill="white"/>
<path d="M50.5147 3.05176e-05H46.1081C45.4633 3.05176e-05 45.0332 0.430069 45.0332 1.07494V3.76204L6.55634 3.76168V1.07495C6.55634 0.430078 6.1263 3.90852e-05 5.48143 3.90852e-05H1.07491C0.430039 3.90852e-05 0 0.430078 0 1.07495V8.70584C0 9.35071 0.430039 9.78075 1.07491 9.78075H5.48143C6.1263 9.78075 6.55634 9.35071 6.55634 8.70584V5.91151H8.49097C8.27577 6.34119 8.16853 6.77122 8.16853 7.30849C8.16853 14.5097 12.2526 23.645 17.627 25.6874L16.1224 48.258C16.0148 49.1177 16.3372 49.9778 16.9821 50.6227C17.5194 51.2675 18.3795 51.59 19.2392 51.59C20.7438 51.59 22.0335 50.5151 22.2487 49.1181L24.5058 38.4776C24.5058 38.37 24.5058 38.2628 24.8282 38.2628C25.043 38.2628 25.043 38.4776 25.1506 38.4776L27.4077 49.1181C27.7298 50.5151 29.0195 51.59 30.5241 51.59C31.3838 51.59 32.2439 51.2675 32.7812 50.6227C33.3184 49.9778 33.6409 49.1181 33.6409 48.258L32.1363 25.7952C37.5101 23.753 41.5947 14.6177 41.5947 7.41628C41.5947 6.879 41.4871 6.34136 41.2723 5.91169H45.1416V8.70602C45.1416 9.3509 45.5716 9.78094 46.2165 9.78094H50.5154C51.1603 9.78094 51.5903 9.3509 51.5903 8.70602V1.07514C51.5903 0.430262 51.1603 0.000223335 50.5154 0.000223335L50.5147 3.05176e-05ZM4.40615 7.63092H2.14909V2.14949H4.40615V7.63092ZM30.7391 23.9683C30.2019 24.0759 29.8794 24.5056 29.8794 25.0433L31.4912 48.3656C31.4912 48.688 31.3836 48.9029 31.2764 49.1181C31.0616 49.3329 30.8464 49.4405 30.5239 49.4405C30.0939 49.4405 29.6642 49.1181 29.5566 48.688L27.2996 38.0476C27.0847 36.8655 26.1174 36.113 24.9349 36.113C23.7527 36.113 22.7854 36.8655 22.5702 38.0476L20.3132 48.688C20.2056 49.1181 19.7759 49.4405 19.3459 49.4405C19.0234 49.4405 18.8086 49.3329 18.5934 49.1181C18.3789 48.9029 18.2713 48.688 18.2713 48.3656L19.7759 24.9355C19.7759 24.3982 19.4534 23.9682 18.9162 23.8606C14.2945 22.7856 10.318 13.865 10.318 7.30848C10.318 6.556 10.9629 6.01873 11.6077 6.01873C12.3602 6.01873 12.8975 6.66361 12.8975 7.30848C12.8975 12.2526 15.907 21.3879 20.7436 21.3879C21.066 21.3879 23.1082 21.3879 25.1501 21.4955C26.9771 21.4955 28.5893 21.6031 28.8045 21.6031C33.641 21.6031 36.6506 12.4673 36.6506 7.52368C36.6506 6.77121 37.2955 6.23394 37.9403 6.23394C38.5852 6.23394 39.2301 6.87881 39.2301 7.52368C39.4449 13.9724 35.4681 22.8929 30.7391 23.968L30.7391 23.9683ZM34.6084 7.41627C34.6084 12.3604 31.5988 19.3464 28.9121 19.3464C28.6973 19.3464 26.9775 19.3464 25.2577 19.2388C23.2155 19.2388 21.1736 19.1312 20.8512 19.1312C18.0568 19.1312 15.1549 12.1452 15.1549 7.20106C15.1549 6.77102 15.0473 6.23375 14.9401 5.91132H35.039C34.7158 6.44895 34.6086 6.87899 34.6086 7.41627H34.6084ZM49.4405 7.6311H47.1834V2.14967H49.4405V7.6311Z" fill="white"/>
<path d="M275.591 4.0012C275.544 4.00222 275.496 4.00678 275.449 4.01388C269.639 4.92448 265.208 9.93483 265.208 15.9948V33.3136C265.208 33.9413 265.717 34.4494 266.344 34.4494H268.748V46.2959C268.748 46.9231 269.256 47.4317 269.883 47.4317H275.625C276.252 47.4317 276.76 46.9231 276.76 46.2959V33.3149V33.3144V33.3134V5.13575C276.76 4.829 276.636 4.53493 276.416 4.32098C276.196 4.10702 275.898 3.99141 275.591 4.00053L275.591 4.0012ZM212.006 4.01388H212.007C211.38 4.02351 210.879 4.53915 210.888 5.16583V13.4824C210.888 16.4556 212.51 19.0561 214.916 20.4454V46.2984C214.916 46.9256 215.424 47.4341 216.051 47.4341H221.794C222.421 47.4341 222.93 46.9256 222.93 46.2984V20.4454C225.336 19.0562 226.958 16.4557 226.958 13.4824V5.16583C226.962 4.86213 226.844 4.56906 226.63 4.35257C226.417 4.13607 226.126 4.01438 225.822 4.01438C225.518 4.01438 225.227 4.13607 225.013 4.35257C224.8 4.56907 224.682 4.86213 224.686 5.16583V13.4824C224.686 16.6949 222.136 19.2457 218.923 19.2457C215.711 19.2457 213.16 16.6949 213.16 13.4824L213.159 5.16583C213.164 4.85908 213.044 4.56298 212.827 4.34598C212.609 4.12897 212.314 4.00931 212.007 4.01388H212.006ZM218.905 4.01388H218.906C218.279 4.02351 217.778 4.53915 217.787 5.16583V13.2158C217.783 13.5195 217.901 13.8126 218.114 14.0286C218.327 14.2451 218.619 14.3673 218.923 14.3673C219.227 14.3673 219.518 14.2451 219.731 14.0286C219.945 13.8126 220.063 13.5195 220.058 13.2158V5.16583C220.063 4.85908 219.943 4.56298 219.726 4.34598C219.509 4.12897 219.213 4.00931 218.906 4.01388H218.905ZM274.488 6.56673V32.1783H267.479V15.9952C267.479 11.5086 270.424 7.78449 274.488 6.56608V6.56673ZM244.482 9.40604C235.301 9.40604 227.835 16.8724 227.835 26.0525C227.835 35.2327 235.302 42.699 244.482 42.699C253.662 42.699 261.128 35.2327 261.128 26.0525C261.128 16.872 253.662 9.40604 244.482 9.40604V9.40604ZM244.482 11.6775C252.434 11.6775 258.857 18.1004 258.857 26.0525C258.857 34.0052 252.434 40.4276 244.482 40.4276C236.529 40.4276 230.107 34.0052 230.107 26.0525C230.107 18.0999 236.529 11.6775 244.482 11.6775V11.6775ZM244.482 19.3432C240.79 19.3432 237.772 22.361 237.772 26.053C237.772 29.7451 240.79 32.7629 244.482 32.7629C248.174 32.7629 251.192 29.7456 251.192 26.053C251.192 22.361 248.174 19.3432 244.482 19.3432ZM217.187 21.3287C217.746 21.4524 218.327 21.5178 218.922 21.5178C219.518 21.5178 220.099 21.4524 220.658 21.3287V45.162H217.186L217.187 21.3287ZM244.482 21.6146C246.946 21.6146 248.92 23.5885 248.92 26.0531C248.92 28.5176 246.946 30.4915 244.482 30.4915C242.017 30.4915 240.043 28.5176 240.043 26.0531C240.043 23.5885 242.017 21.6146 244.482 21.6146V21.6146ZM271.019 34.4518H274.488V45.1611H271.019V34.4518Z" fill="white"/>
<path d="M148.027 46.9481H119.099C117.251 46.9481 115.748 45.4448 115.748 43.5976L115.748 3.3525C115.748 1.50528 117.252 0.00198364 119.099 0.00198364H142.997C143.218 0.00198364 143.429 0.0905935 143.585 0.24614L151.129 7.79035C151.284 7.94552 151.373 8.1564 151.373 8.37851V43.5974C151.378 45.4443 149.875 46.9475 148.028 46.9475L148.027 46.9481ZM119.099 1.66595C118.167 1.66595 117.412 2.42049 117.412 3.3522V43.5973C117.412 44.529 118.167 45.2835 119.099 45.2835H148.027C148.954 45.2835 149.714 44.529 149.714 43.5973L149.714 8.72706L142.652 1.66536L119.099 1.66595Z" fill="white"/>
<path d="M143.385 51.5897H114.456C112.609 51.5897 111.105 50.0864 111.105 48.2392V7.9941C111.105 6.14688 112.609 4.64359 114.456 4.64359H116.581C117.041 4.64359 117.413 5.01544 117.413 5.47551V43.5958C117.413 44.5275 118.167 45.282 119.099 45.282H145.898C146.358 45.282 146.73 45.6539 146.73 46.114V48.2386C146.736 50.0859 145.232 51.5892 143.385 51.5892L143.385 51.5897ZM114.456 6.30854C113.53 6.30854 112.77 7.06308 112.77 7.9948V48.2398C112.77 49.1716 113.524 49.9261 114.456 49.9261H143.385C144.316 49.9261 145.071 49.1716 145.071 48.2398V46.9474L119.099 46.9471C117.252 46.9471 115.749 45.4438 115.749 43.5965L115.749 6.30835L114.456 6.30854Z" fill="white"/>
<path d="M150.545 9.20959H145.514C143.666 9.20959 142.163 7.7063 142.163 5.85908L142.163 0.833497C142.163 0.495305 142.369 0.195429 142.679 0.0623153C142.99 -0.0653796 143.351 0.00698283 143.584 0.245344L151.128 7.78956C151.366 8.02791 151.438 8.38313 151.311 8.69384C151.183 9.00455 150.878 9.20963 150.545 9.20963V9.20959ZM143.827 2.84169V5.86492C143.827 6.79127 144.582 7.55117 145.514 7.55117H148.537L143.827 2.84169Z" fill="white"/>
<path d="M139.645 12.1385H124.041C123.58 12.1385 123.209 11.7666 123.209 11.3066C123.209 10.8461 123.581 10.4746 124.041 10.4746H139.645C140.106 10.4746 140.477 10.8465 140.477 11.3066C140.477 11.7666 140.106 12.1385 139.645 12.1385V12.1385Z" fill="white"/>
<path d="M142.763 20.4598H124.041C123.58 20.4598 123.209 20.0879 123.209 19.6279C123.209 19.1674 123.581 18.7959 124.041 18.7959H142.763C143.223 18.7959 143.595 19.1678 143.595 19.6279C143.595 20.0879 143.223 20.4598 142.763 20.4598Z" fill="white"/>
<path d="M142.763 28.7801H124.041C123.58 28.7801 123.209 28.4082 123.209 27.9482C123.209 27.4877 123.581 27.1162 124.041 27.1162H142.763C143.223 27.1162 143.595 27.4881 143.595 27.9482C143.595 28.4082 143.223 28.7801 142.763 28.7801Z" fill="white"/>
<path d="M142.763 37.1014H124.041C123.58 37.1014 123.209 36.7295 123.209 36.2695C123.209 35.809 123.581 35.4375 124.041 35.4375H142.763C143.223 35.4375 143.595 35.8094 143.595 36.2695C143.595 36.7295 143.223 37.1014 142.763 37.1014Z" fill="white"/>
<path d="M367.48 49.9997H342.824C341.094 49.998 339.435 49.3099 338.211 48.0863C336.988 46.8627 336.3 45.2037 336.298 43.4733V17.4708C336.3 15.7406 336.988 14.0818 338.212 12.8584C339.435 11.635 341.094 10.947 342.824 10.9453H367.48C369.21 10.947 370.869 11.635 372.093 12.8584C373.316 14.0818 374.004 15.7406 374.006 17.4708V43.4742C374.004 45.2044 373.316 46.8632 372.093 48.0866C370.869 49.31 369.21 49.998 367.48 49.9997V49.9997ZM342.824 12.0693C341.389 12.0707 340.013 12.6414 338.999 13.6561C337.984 14.6708 337.413 16.0466 337.412 17.4815V43.4849C337.413 44.9199 337.984 46.2957 338.999 47.3104C340.013 48.3251 341.389 48.8957 342.824 48.8972H367.48C368.915 48.8955 370.29 48.3248 371.305 47.3101C372.32 46.2955 372.89 44.9198 372.892 43.4849V17.4708C372.891 16.0358 372.32 14.66 371.305 13.6453C370.291 12.6307 368.915 12.06 367.48 12.0586L342.824 12.0693Z" fill="white" stroke="white"/>
<path d="M343.392 12.0693C343.319 12.07 343.246 12.056 343.178 12.0283C343.11 12.0005 343.049 11.9595 342.997 11.9076C342.945 11.8557 342.904 11.7939 342.876 11.7259C342.848 11.658 342.834 11.5852 342.835 11.5117V8.55865C342.841 8.41477 342.902 8.2787 343.006 8.17894C343.11 8.07918 343.248 8.02347 343.392 8.02347C343.536 8.02347 343.674 8.07918 343.778 8.17894C343.882 8.2787 343.943 8.41477 343.949 8.55865V11.4992C343.95 11.5731 343.936 11.6465 343.909 11.7151C343.881 11.7837 343.841 11.8462 343.789 11.899C343.737 11.9518 343.676 11.9939 343.608 12.0228C343.539 12.0517 343.466 12.0669 343.392 12.0675V12.0693Z" fill="white" stroke="white"/>
<path d="M366.911 12.0693C366.838 12.07 366.765 12.056 366.697 12.0283C366.629 12.0005 366.567 11.9595 366.515 11.9076C366.463 11.8557 366.422 11.7939 366.395 11.7259C366.367 11.658 366.353 11.5852 366.354 11.5117V8.55865C366.359 8.41477 366.421 8.2787 366.524 8.17894C366.628 8.07918 366.767 8.02347 366.911 8.02347C367.055 8.02347 367.193 8.07918 367.297 8.17894C367.401 8.2787 367.462 8.41477 367.468 8.55865V11.4992C367.468 11.6479 367.409 11.7907 367.305 11.897C367.201 12.0032 367.06 12.0644 366.911 12.0675V12.0693Z" fill="white" stroke="white"/>
<path d="M368.593 9.11837H341.709C341.238 9.11626 340.786 8.92786 340.452 8.59418C340.118 8.26051 339.93 7.80855 339.928 7.33667V2.78173C339.93 2.31 340.118 1.85819 340.452 1.52453C340.785 1.19088 341.237 1.00238 341.709 1.00003L368.602 1.00003C369.074 1.00215 369.526 1.19054 369.86 1.52422C370.194 1.8579 370.382 2.30985 370.384 2.78173V7.33667C370.38 7.80944 370.19 8.26165 369.855 8.5952C369.52 8.92875 369.067 9.11674 368.594 9.11837H368.593ZM341.709 2.11326C341.532 2.1135 341.362 2.18397 341.237 2.30926C341.111 2.43455 341.041 2.60443 341.04 2.78173V7.33667C341.041 7.51366 341.111 7.68319 341.237 7.80825C341.362 7.93332 341.532 8.00378 341.709 8.00425H368.602C368.779 8.00354 368.949 7.93298 369.074 7.80794C369.199 7.6829 369.269 7.5135 369.27 7.33667V2.78173C369.269 2.60474 369.199 2.43512 369.074 2.30989C368.949 2.18465 368.779 2.11397 368.602 2.11326H341.709Z" fill="white" stroke="white"/>
<path d="M373.449 21.5462H336.855C336.78 21.5493 336.705 21.5371 336.635 21.5104C336.565 21.4838 336.501 21.4432 336.447 21.3912C336.393 21.3392 336.349 21.2768 336.32 21.2077C336.291 21.1386 336.275 21.0643 336.275 20.9892C336.275 20.9141 336.291 20.8398 336.32 20.7707C336.349 20.7016 336.393 20.6392 336.447 20.5871C336.501 20.5351 336.565 20.4946 336.635 20.4679C336.705 20.4413 336.78 20.4291 336.855 20.4321H373.45C373.525 20.4291 373.599 20.4413 373.67 20.4679C373.74 20.4946 373.804 20.5351 373.858 20.5871C373.912 20.6392 373.955 20.7016 373.985 20.7707C374.014 20.8398 374.029 20.9141 374.029 20.9892C374.029 21.0643 374.014 21.1386 373.985 21.2077C373.955 21.2768 373.912 21.3392 373.858 21.3912C373.804 21.4432 373.74 21.4838 373.67 21.5104C373.599 21.5371 373.525 21.5493 373.45 21.5462H373.449Z" fill="white" stroke="white"/>
<path d="M373.449 40.5111H336.855C336.78 40.5141 336.705 40.5019 336.635 40.4753C336.565 40.4486 336.501 40.4081 336.447 40.3561C336.393 40.304 336.349 40.2416 336.32 40.1725C336.291 40.1034 336.275 40.0291 336.275 39.954C336.275 39.8789 336.291 39.8046 336.32 39.7355C336.349 39.6664 336.393 39.604 336.447 39.552C336.501 39.5 336.565 39.4594 336.635 39.4328C336.705 39.4061 336.78 39.394 336.855 39.397H373.45C373.593 39.4027 373.729 39.4639 373.829 39.5678C373.929 39.6716 373.985 39.81 373.985 39.954C373.985 40.098 373.929 40.2364 373.829 40.3403C373.729 40.4441 373.593 40.5053 373.45 40.5111H373.449Z" fill="white" stroke="white"/>
<path d="M355.151 37.4945C353.761 37.4946 352.403 37.0826 351.247 36.3105C350.091 35.5385 349.19 34.441 348.658 33.1569C348.126 31.8728 347.987 30.4598 348.258 29.0965C348.529 27.7333 349.198 26.481 350.181 25.4981C351.164 24.5152 352.416 23.8458 353.779 23.5746C355.142 23.3034 356.555 23.4425 357.84 23.9743C359.124 24.5062 360.221 25.4069 360.994 26.5626C361.766 27.7183 362.178 29.077 362.178 30.467C362.176 32.33 361.435 34.1163 360.118 35.4337C358.801 36.7512 357.014 37.4923 355.151 37.4945ZM355.151 24.5652C353.982 24.5651 352.838 24.9118 351.866 25.5615C350.893 26.2112 350.135 27.1347 349.687 28.2152C349.24 29.2958 349.123 30.4849 349.351 31.632C349.579 32.7792 350.142 33.8329 350.969 34.66C351.796 35.487 352.85 36.0502 353.997 36.2784C355.144 36.5065 356.333 36.3893 357.414 35.9417C358.494 35.494 359.418 34.7359 360.068 33.7633C360.717 32.7908 361.064 31.6473 361.064 30.4777C361.063 28.9099 360.44 27.4066 359.331 26.298C358.223 25.1894 356.719 24.5662 355.151 24.5652V24.5652Z" fill="white" stroke="white"/>
</svg>
