<svg width="68" height="72" viewBox="0 0 68 72" fill="none" xmlns="http://www.w3.org/2000/svg">
<path d="M62.1638 16.9857H37.3378C39.3154 15.2629 40.4938 12.8 40.5942 10.1796C40.6944 7.55856 39.7084 5.01282 37.8681 3.14402C36.0277 1.27538 33.4978 0.249336 30.8757 0.309645C28.2542 0.36931 25.7729 1.50909 24.0205 3.46021C22.2674 5.41073 21.3977 7.99899 21.6172 10.612C21.8374 13.2256 23.1267 15.6324 25.1805 17.263C22.0287 18.0319 19.4491 20.2881 18.2675 23.31L12.9179 39.7053C12.0875 42.2531 12.5273 45.0449 14.1013 47.2138C15.6754 49.3832 18.1929 50.6671 20.873 50.6677H31.6077L26.3362 62.6941C25.074 65.5789 26.2723 69.2128 28.956 70.6289C30.4384 71.4156 32.1815 71.5485 33.7661 70.9961C35.3505 70.4438 36.6337 69.256 37.3054 67.7183L46.3542 47.051C46.8616 45.8848 46.9883 44.5875 46.7152 43.3457C46.4427 42.1032 45.7846 40.9788 44.8354 40.1325C43.6729 39.128 42.1813 38.5873 40.6448 38.6132H30.8574L35.4281 27.3409H62.1642C64.0125 27.3409 65.72 26.3549 66.6445 24.7543C67.5684 23.1532 67.5684 21.1813 66.6445 19.5808C65.72 17.9797 64.0125 16.9937 62.1642 16.9937L62.1638 16.9857ZM23.9343 9.82102C23.9349 7.92215 24.6897 6.10153 26.0324 4.7593C27.3751 3.41655 29.1965 2.66312 31.0946 2.66312C32.9935 2.66374 34.8147 3.41785 36.1568 4.76056C37.4995 6.10331 38.253 7.92467 38.253 9.82339C38.253 11.7221 37.4988 13.5429 36.1561 14.8856C34.8134 16.2277 32.992 16.9818 31.094 16.9818C29.1951 16.9799 27.3751 16.2246 26.0329 14.8818C24.6907 13.5397 23.9361 11.719 23.9342 9.82071L23.9343 9.82102ZM62.1685 24.9771H34.6372C34.1593 24.9771 33.7287 25.2662 33.5485 25.709L28.0372 39.315V39.3273L28.0268 39.3568C28.0268 39.3826 28.0077 39.4066 28.0009 39.4325C27.9942 39.4583 28.0009 39.4651 27.9886 39.4804C27.9763 39.4958 27.9763 39.5235 27.9732 39.5444C27.9696 39.5653 27.9732 39.5893 27.9628 39.6115C27.9523 39.6336 27.9628 39.6422 27.9628 39.6582V39.7443V39.7701L27.9634 39.7695C27.9616 39.7997 27.9616 39.8292 27.9634 39.8593C27.9628 39.8698 27.9628 39.8796 27.9634 39.8901C27.9634 39.9122 27.9634 39.935 27.9739 39.9571C27.9843 39.9793 27.9739 39.9897 27.9825 40.007V40.0316C28.0145 40.1663 28.0692 40.2942 28.1442 40.4105C28.1449 40.4135 28.1449 40.4172 28.1442 40.4209L28.1633 40.4467C28.2402 40.5544 28.3343 40.6485 28.4419 40.7254L28.4629 40.7389V40.7395C28.477 40.7494 28.4924 40.7586 28.5078 40.7666L28.5643 40.801L28.5951 40.8146L28.5957 40.8152C28.6203 40.8287 28.6455 40.8404 28.6714 40.8515L28.704 40.8638L28.7766 40.8878L28.8245 40.9013L28.8848 40.9148C28.915 40.9216 28.9457 40.9259 28.9758 40.929H28.9949H29.1136H40.6528C41.6112 40.9038 42.5456 41.2316 43.2781 41.8504C43.8612 42.3677 44.2653 43.0572 44.4333 43.8187C44.6012 44.5802 44.5231 45.3755 44.2112 46.0903L35.1625 66.7576C34.7565 67.7037 33.9722 68.4356 33.0009 68.7763C32.0297 69.1171 30.9606 69.0353 30.0521 68.5506C28.4436 67.7018 27.7117 65.4055 28.4866 63.6353L34.4752 49.9587C34.6345 49.5958 34.6001 49.1763 34.3829 48.8447C34.1658 48.5126 33.7955 48.3133 33.3988 48.3139H20.8693C18.9422 48.3102 17.1331 47.3857 16.002 45.8264C14.8702 44.2672 14.5522 42.2606 15.1458 40.4277L20.4695 24.1159C21.0367 22.6944 22.0196 21.4777 23.2904 20.6252C24.5612 19.7727 26.0596 19.3243 27.5893 19.3384H62.1624C63.1718 19.3384 64.1049 19.8772 64.6099 20.7513C65.1149 21.626 65.1149 22.7031 64.6099 23.5776C64.1049 24.4523 63.1718 24.9905 62.1624 24.9905L62.1685 24.9771Z" fill="white"/>
<path d="M23.6546 54.1681H12.3078C11.4786 54.1675 10.6827 53.8384 10.0965 53.2516C9.50968 52.6654 9.17939 51.8701 9.17877 51.0403V42.0003C9.19046 41.681 9.07236 41.371 8.85093 41.141C8.6295 40.9109 8.3244 40.7805 8.00455 40.7805C7.68532 40.7805 7.3796 40.9109 7.15879 41.141C6.93736 41.371 6.81864 41.681 6.83095 42.0003V51.0403C6.83279 52.4926 7.41037 53.8845 8.43694 54.9112C9.46415 55.9378 10.8561 56.5154 12.3078 56.5171H23.6545C24.3029 56.5171 24.8288 55.9912 24.8288 55.3429C24.8288 54.694 24.3029 54.1681 23.6545 54.1681L23.6546 54.1681Z" fill="white"/>
<path d="M19.1188 60.8397H10.9552C8.90876 60.8379 6.94658 60.0235 5.49932 58.5768C4.05261 57.1295 3.23828 55.1673 3.23639 53.1209V48.6719C3.23639 48.0236 2.71048 47.4977 2.06155 47.4977C1.41262 47.4977 0.886719 48.0236 0.886719 48.6719V53.1209C0.890409 55.7898 1.95207 58.3486 3.83983 60.2365C5.72689 62.1235 8.28633 63.1847 10.9554 63.1877H19.119C19.4382 63.2 19.7482 63.0813 19.9783 62.8598C20.2089 62.639 20.3387 62.3333 20.3387 62.0141C20.3387 61.6942 20.209 61.3891 19.9783 61.1677C19.7482 60.9463 19.4382 60.8282 19.119 60.8399L19.1188 60.8397Z" fill="white"/>
<path d="M51.3969 47.5954C51.1109 47.4699 50.7874 47.4625 50.4964 47.5763C50.2055 47.6895 49.9717 47.914 49.8469 48.2L41.7522 66.6975C41.6175 66.9841 41.604 67.3132 41.7159 67.6103C41.8273 67.9068 42.0536 68.146 42.3439 68.2727C42.6343 68.4001 42.9633 68.4044 43.2574 68.285C43.5508 68.1657 43.7839 67.9332 43.9032 67.6398L51.9979 49.1423C52.2581 48.5494 51.9893 47.8574 51.3969 47.5954L51.3969 47.5954Z" fill="white"/>
</svg>
