<svg width="172" height="169" viewBox="0 0 172 169" fill="none" xmlns="http://www.w3.org/2000/svg">
<ellipse cx="86.2451" cy="84.2261" rx="85.249" ry="84.2261" fill="black"/>
<path d="M132.584 75.2649C131.528 73.9968 130.048 73.1512 128.358 73.1512L113.986 71.8831L101.305 60.0478C100.671 59.4138 99.6147 58.5681 87.5678 58.5681C73.4072 58.5681 71.9282 59.6246 71.5051 60.0478L71.2935 60.2594L51.638 82.0271C50.5815 83.2952 49.9475 84.7749 50.1583 86.4654C50.1583 88.156 51.004 89.6357 52.2721 90.6922C54.8082 92.8059 58.8241 92.5943 60.9371 90.2697L70.6594 79.4909V95.9762L40.4353 124.298C37.8991 126.623 37.8991 130.427 40.2237 132.963C42.5483 135.288 46.5642 135.499 48.8888 133.175L78.4788 105.277H95.3865L107.645 111.829V128.948C107.645 132.33 110.393 135.077 113.774 135.077C117.156 135.077 119.903 132.329 119.903 128.948V108.236C119.903 105.912 118.635 103.798 116.521 102.742L103.207 95.3432V78.4355L107.223 82.2398C108.279 83.0854 109.547 83.7195 110.815 83.9304L127.3 85.1984C130.682 85.6209 133.641 82.8738 133.853 79.492C134.275 78.013 133.641 76.5334 132.584 75.2653V75.2649ZM127.724 81.1829L111.238 79.9148C110.816 79.9148 110.393 79.7032 110.182 79.4924L102.573 72.3063C101.939 71.4606 101.094 71.4606 100.248 71.6722C99.4024 72.0947 98.9799 72.7287 98.9799 73.5744V96.612C98.9799 97.4576 99.4024 98.0917 100.036 98.5141L114.831 106.334C115.465 106.757 115.888 107.391 115.888 108.025V128.736C115.888 129.793 115.042 130.639 113.985 130.639C112.929 130.639 112.083 129.793 112.083 128.736V110.349C112.083 109.503 111.661 108.869 111.027 108.447L97.2894 101.261C96.6553 101.049 96.4437 101.049 96.0213 101.049H77.6339C76.9999 101.049 76.5774 101.261 76.1542 101.683L45.932 130.215C45.0863 130.849 43.8182 130.849 43.1842 130.215C42.5501 129.37 42.5501 128.313 43.1842 127.468L74.0405 98.5134C74.463 98.091 74.6746 97.4569 74.6746 97.0337V73.786C74.6746 72.9403 74.0405 72.0954 73.4065 71.8838C72.5608 71.6722 71.7159 71.8838 71.0819 72.5179L57.7669 87.5234C57.1328 88.369 55.8647 88.369 55.0191 87.735C54.5967 87.3125 54.3851 86.6785 54.3851 86.256C54.3851 85.8335 54.5967 85.1995 54.8075 84.7763L74.0409 63.2187C75.5206 63.0072 80.3813 62.5847 87.5675 62.5847C94.1195 62.5847 97.7122 63.0072 98.7687 63.2187L111.872 75.4772C112.295 75.8997 112.718 75.8997 113.14 76.1113L128.146 77.3794C128.568 77.3794 129.202 77.591 129.414 78.0134C129.836 78.4359 129.836 78.859 129.836 79.4931C129.837 80.338 128.992 81.1836 127.724 81.1836L127.724 81.1829Z" fill="#E6FF00"/>
<path d="M86.5104 56.0318C92.6392 56.0318 97.7116 50.9594 97.7116 44.8306C97.7116 38.4901 92.6392 33.4177 86.5104 33.4177C80.3815 33.4177 75.3091 38.4901 75.3091 44.619C75.0975 50.9594 80.1699 56.0318 86.5104 56.0318ZM86.5104 37.6445C90.3147 37.6445 93.4849 40.8147 93.4849 44.619C93.4849 48.4233 90.3147 51.5935 86.5104 51.5935C82.7061 51.5935 79.5359 48.4233 79.5359 44.619C79.5359 40.8147 82.4945 37.6445 86.5104 37.6445Z" fill="#E6FF00"/>
</svg>
