<svg width="21" height="27" viewBox="0 0 21 27" fill="none" xmlns="http://www.w3.org/2000/svg">
<path fill-rule="evenodd" clip-rule="evenodd" d="M9.98888 0.205116C10.126 0.0679895 10.3127 0 10.5134 0H15.4054C15.5065 0 15.6019 0.0171475 15.6928 0.0575178C15.7825 0.0974055 15.8552 0.154387 15.9179 0.217106C15.9806 0.279826 16.0376 0.352479 16.0775 0.442226C16.1179 0.53306 16.135 0.628497 16.135 0.72961C16.135 1.20228 16.3087 1.72366 16.6099 2.11088L16.6126 2.11434C17.2646 2.98365 18.3881 3.33011 19.4773 2.85087L19.4879 2.8462L19.4989 2.84253C19.657 2.78983 19.8338 2.77581 20.0117 2.8472L20.0282 2.83895L20.1489 2.91937C20.337 3.04477 20.5 3.25715 20.5 3.51107V8.59493C20.5 8.94486 20.2807 9.24663 19.9153 9.31969L19.9074 9.32127C18.8283 9.50112 17.7937 9.43563 16.807 9.23954V18.1902C16.807 18.2143 16.8071 18.2677 16.7976 18.3244C16.792 18.3581 16.7805 18.4101 16.7528 18.4638C16.3751 22.7362 12.7312 26.0629 8.40337 26.0629C3.75696 26.0629 0 22.306 0 17.6596C0 13.1129 3.51074 9.45407 8.05651 9.25643L8.06736 9.25596L8.16329 9.25619C8.36398 9.25619 8.55065 9.32418 8.68778 9.46131C8.82491 9.59844 8.8929 9.78511 8.8929 9.9858V15.5493C8.8929 15.9338 8.5899 16.2081 8.26028 16.274L8.24964 16.2762L8.23886 16.2774C7.49685 16.3598 6.97446 16.9289 6.97446 17.6596C6.97446 18.4327 7.6299 19.0882 8.40309 19.0882C9.12936 19.0882 9.69605 18.572 9.78376 17.8371V0.72961C9.78376 0.528915 9.85175 0.342242 9.98888 0.205116ZM10.3424 0.558669C10.3117 0.589406 10.2838 0.642539 10.2838 0.72961V17.8652L10.2822 17.879C10.1728 18.8636 9.39905 19.5882 8.40309 19.5882C7.35376 19.5882 6.47446 18.7089 6.47446 17.6596C6.47446 16.6678 7.19294 15.8964 8.17117 15.7818C8.31541 15.7494 8.3929 15.6424 8.3929 15.5493V9.9858C8.3929 9.89873 8.36496 9.8456 8.33423 9.81486C8.30349 9.78413 8.25036 9.75619 8.16329 9.75619H8.07285C3.79641 9.94489 0.5 13.3832 0.5 17.6596C0.5 22.0298 4.0331 25.5629 8.40337 25.5629C12.4949 25.5629 15.9344 22.4004 16.2599 18.3592L16.2672 18.2675L16.306 18.2288C16.3062 18.226 16.3064 18.2229 16.3065 18.2195C16.307 18.2094 16.307 18.1996 16.307 18.1874V8.61747L16.6124 8.68688C17.6433 8.92118 18.7112 9.01289 19.8207 8.8287C19.9329 8.80491 20 8.72333 20 8.59493V3.51107C20 3.47934 19.9747 3.41111 19.8894 3.34795L19.871 3.33567C19.8083 3.2939 19.7507 3.28757 19.6668 3.31371C18.3623 3.88156 16.9986 3.46079 16.2139 2.41612C15.8444 1.94024 15.635 1.31137 15.635 0.72961C15.635 0.68684 15.6282 0.662374 15.6206 0.645296C15.6125 0.627131 15.5975 0.603862 15.5643 0.57066C15.5311 0.537457 15.5079 0.522497 15.4897 0.514424C15.4726 0.506833 15.4482 0.5 15.4054 0.5H10.5134C10.4263 0.5 10.3732 0.527932 10.3424 0.558669ZM10.7424 0.958946H15.1877L15.2203 1.17093C15.3093 1.7496 15.5312 2.24094 15.8476 2.6936C16.6065 3.71814 17.9436 4.25027 19.231 3.93951L19.5396 3.86501L19.5403 8.44072L19.3119 8.46058C18.1794 8.55906 17.1374 8.46087 16.0937 8.11297C16.0466 8.09725 15.9912 8.10558 15.858 8.1485C15.8179 8.18424 15.7993 8.23348 15.7993 8.30744V17.9956L15.7993 18.0007C15.7994 18.0431 15.7996 18.1335 15.7458 18.228C15.4616 22.066 12.2041 25.104 8.35486 25.104C4.23602 25.104 0.91071 21.7787 0.91071 17.6598C0.91071 13.7913 3.78929 10.6123 7.61251 10.2644L7.88517 10.2396V15.3508L7.70796 15.4048C6.69993 15.7115 5.96673 16.6288 5.96673 17.6596C5.96673 18.9603 7.05382 20.0474 8.35458 20.0474C9.52633 20.0474 10.5243 19.178 10.6974 18.0532L10.7098 17.9723L10.7414 17.9407C10.7416 17.9379 10.7418 17.9349 10.7419 17.9315C10.7424 17.9213 10.7424 17.9116 10.7424 17.8994V0.958946ZM11.2424 1.45895L11.2424 17.9022C11.2425 17.9263 11.2425 17.9797 11.233 18.0364C11.227 18.0725 11.2143 18.1296 11.182 18.1873C10.9466 19.5279 9.75261 20.5474 8.35458 20.5474C6.77768 20.5474 5.46673 19.2365 5.46673 17.6596C5.46673 16.4517 6.27679 15.4011 7.38517 14.9865V10.7925C3.95948 11.2389 1.41071 14.1392 1.41071 17.6598C1.41071 21.5025 4.51217 24.604 8.35486 24.604C11.9638 24.604 15.0204 21.7332 15.2518 18.1234L15.2579 18.0293L15.2993 17.9879V8.30744C15.2993 8.10592 15.3699 7.87078 15.6024 7.71574L15.6303 7.69717L15.6621 7.68658C15.6683 7.6845 15.6748 7.68232 15.6815 7.68005C15.8112 7.63639 16.0271 7.56371 16.2518 7.63862C17.1532 7.93908 18.0561 8.04129 19.0402 7.97958L19.0397 4.48618C17.6465 4.69831 16.2558 4.08701 15.4436 2.98822L15.4398 2.98303C15.1238 2.53168 14.8852 2.03475 14.7646 1.45895H11.2424Z" fill="black"/>
</svg>
