<svg width="16" height="12" viewBox="0 0 16 12" fill="none" xmlns="http://www.w3.org/2000/svg">
<path d="M0.842038 0C0.376959 0 0 0.376959 0 0.842038C0 1.30712 0.376959 1.68408 0.842038 1.68408H15.158C15.623 1.68408 16 1.30712 16 0.842038C16 0.376959 15.623 0 15.158 0H0.842038ZM0.842038 5.05268C0.376959 5.05268 0 5.42964 0 5.89472C0 6.3598 0.376959 6.73676 0.842038 6.73676H15.158C15.623 6.73676 16 6.3598 16 5.89472C16 5.42964 15.623 5.05268 15.158 5.05268H0.842038ZM0.842038 10.1054C0.376959 10.1054 0 10.4823 0 10.9474C0 11.4125 0.376959 11.7894 0.842038 11.7894H15.158C15.623 11.7894 16 11.4125 16 10.9474C16 10.4823 15.623 10.1054 15.158 10.1054H0.842038Z" fill="white"/>
</svg>
