<svg width="21" height="20" viewBox="0 0 21 20" fill="none" xmlns="http://www.w3.org/2000/svg">
<circle cx="10.5573" cy="10.2804" r="7.63932" fill="white"/>
<circle cx="10.5573" cy="10.2804" r="8.62504" stroke="white" stroke-opacity="0.5" stroke-width="1.97144"/>
<path d="M9.50529 13.1599C9.35758 13.1623 9.21524 13.1064 9.111 13.0052L6.52611 10.5004C6.38872 10.367 6.33535 10.1727 6.38596 9.99067C6.43644 9.80877 6.58346 9.6667 6.77131 9.61819C6.95932 9.56955 7.15969 9.62192 7.29711 9.75532L9.50531 11.8951L14.308 7.23137C14.4458 7.09796 14.6465 7.04586 14.8346 7.09463C15.0228 7.14354 15.1696 7.28587 15.2201 7.46817C15.2704 7.65048 15.2167 7.84492 15.079 7.97845L9.88972 13.0051C9.78808 13.1044 9.64959 13.1601 9.50532 13.1599L9.50529 13.1599Z" fill="#242ACF"/>
</svg>
