<svg width="25" height="30" viewBox="0 0 25 30" fill="none" xmlns="http://www.w3.org/2000/svg">
<path d="M12.9633 0C14.7348 0 16.3417 0.719743 17.5065 1.88359C18.7159 3.09291 19.3929 4.71856 19.3929 6.42986C19.3929 8.202 18.6727 9.80929 17.5079 10.9746C16.3459 12.1395 14.7382 12.8597 12.9631 12.8597C11.188 12.8597 9.58024 12.1395 8.41683 10.9761C7.20347 9.65657 6.53325 8.25278 6.53325 6.42981C6.53325 4.65833 7.25299 3.05142 8.41683 1.88654C9.62615 0.677219 11.2518 0.00016399 12.9631 0.00016399L12.9633 0ZM10.6858 14.1068H15.241C17.9146 14.1068 20.346 15.2009 22.1072 16.9621C23.9402 18.9556 24.9629 21.0721 24.9629 23.8283V23.8351C24.9629 25.2772 24.3725 26.5887 23.4231 27.5382C22.4725 28.4888 21.1618 29.0783 19.7195 29.0783H6.20628C4.76423 29.0783 3.4533 28.4886 2.50273 27.5382C1.55348 26.589 0.962891 25.2772 0.962891 23.8351C0.962891 21.2465 1.98921 18.7939 3.81814 16.9645C5.64537 15.1373 8.09856 14.1067 10.6849 14.1067L10.6858 14.1068ZM15.241 15.6375H10.6858C8.43236 15.6375 6.38354 16.5586 4.89907 18.042C3.41536 19.5267 2.49431 21.5752 2.49431 23.8282C2.49431 24.8191 2.88439 25.7557 3.58513 26.4565C4.25831 27.1296 5.18668 27.5475 6.20683 27.5475H19.72C20.7402 27.5475 21.6687 27.1297 22.3417 26.4565C23.0141 25.7841 23.4326 24.8554 23.4326 23.835C23.4326 21.7563 22.5587 19.4736 21.0259 18.0439C19.5416 16.5596 17.4932 15.6377 15.2408 15.6377L15.241 15.6375ZM16.4279 2.96216C15.5435 2.07757 14.3189 1.5306 12.9635 1.5306C11.6081 1.5306 10.3832 2.07762 9.49907 2.96216C8.57502 3.88622 8.06451 5.12309 8.06451 6.42959C8.06451 7.76725 8.59742 8.9776 9.46152 9.85897C10.477 10.8061 11.5501 11.3286 12.9635 11.3286C14.3167 11.3286 15.5423 10.7799 16.4279 9.89401C17.3155 9.00963 17.8625 7.78496 17.8625 6.42959C17.8625 5.12314 17.352 3.88627 16.4279 2.96216Z" fill="white"/>
</svg>
