<svg width="172" height="169" viewBox="0 0 172 169" fill="none" xmlns="http://www.w3.org/2000/svg">
<ellipse cx="86.2451" cy="84.2261" rx="85.249" ry="84.2261" fill="#82D4FF" fill-opacity="0.2"/>
<path d="M118.725 103.636C118.725 86.4524 89.1222 36.6227 87.8631 34.5174L86.3599 32L84.8576 34.5174C83.5989 36.6226 53.9961 86.4524 53.9961 103.636C53.9961 121.488 68.5212 136 86.3597 136C104.211 135.999 118.723 121.488 118.723 103.636H118.725ZM86.361 127.948C72.9665 127.948 62.0493 117.057 62.0493 103.636C62.0493 102.673 62.8322 101.89 63.7962 101.89C64.7726 101.89 65.543 102.672 65.543 103.636C65.543 115.105 74.8795 124.441 86.348 124.441C87.3245 124.441 88.0949 125.224 88.0949 126.188C88.1074 127.177 87.337 127.948 86.3605 127.948L86.361 127.948Z" fill="#82D4FF"/>
</svg>
