<svg width="24" height="26" viewBox="0 0 24 26" fill="none" xmlns="http://www.w3.org/2000/svg">
<path d="M10.6034 24.6803C10.8468 24.9237 11.1508 25.0453 11.4551 25.0453C11.7594 25.0453 12.0634 24.9237 12.3068 24.6803L23.1353 13.8518C23.622 13.3651 23.622 12.6047 23.1353 12.118L12.3372 1.31988C11.8505 0.833153 11.0901 0.833153 10.6033 1.31988C10.1166 1.8066 10.1166 2.56703 10.6033 3.05376L20.5497 13.0002L10.6033 22.9466C10.1166 23.4331 10.1166 24.1935 10.6033 24.6802L10.6034 24.6803Z" fill="#E6FF00"/>
<path d="M0.865151 24.6803C1.10851 24.9237 1.41255 25.0453 1.71683 25.0453C2.02109 25.0453 2.32512 24.9237 2.56851 24.6803L13.397 13.8518C13.8837 13.3651 13.8837 12.6047 13.397 12.118L2.59893 1.31988C2.1122 0.833153 1.35177 0.833153 0.865042 1.31988C0.378319 1.8066 0.378319 2.56703 0.865042 3.05376L10.8114 13.0002L0.865042 22.9466C0.378319 23.4331 0.378319 24.1935 0.865042 24.6802L0.865151 24.6803Z" fill="white"/>
</svg>
