<svg width="20" height="14" viewBox="0 0 20 14" fill="none" xmlns="http://www.w3.org/2000/svg">
<path d="M16.6153 0.0771484H3.38451H3.38472C2.48692 0.0771484 1.62604 0.433648 0.991373 1.06852C0.356483 1.70319 0 2.56407 0 3.46187V10.5388V10.5386C0 11.4364 0.3565 12.2973 0.991373 12.9319C1.62604 13.5668 2.48692 13.9233 3.38472 13.9233H16.6155H16.6153C17.5131 13.9233 18.374 13.5668 19.0086 12.9319C19.6435 12.2973 20 11.4364 20 10.5386V3.46166V3.46187C20 2.56407 19.6435 1.70319 19.0086 1.06852C18.374 0.433632 17.5131 0.0771484 16.6153 0.0771484ZM14.0584 7.40956L8.05841 10.4865C7.91546 10.5605 7.74419 10.5547 7.60661 10.471C7.46882 10.3875 7.38468 10.2382 7.38447 10.0772V3.92334C7.38468 3.76237 7.46882 3.61299 7.60661 3.5295C7.74419 3.44579 7.91546 3.44 8.05841 3.51404L14.0584 6.59097C14.2125 6.66995 14.3095 6.82856 14.3095 7.00177C14.3095 7.17498 14.2125 7.33359 14.0584 7.41257V7.40956Z" fill="black"/>
</svg>
